<?xml version="1.0" standalone="no"?>
<!DOCTYPE svg PUBLIC "-//W3C//DTD SVG 1.1//EN" "http://www.w3.org/Graphics/SVG/1.1/DTD/svg11.dtd" >
<svg xmlns="http://www.w3.org/2000/svg" xmlns:xlink="http://www.w3.org/1999/xlink" version="1.1">
<metadata>
Created by FontForge 20170731 at Mon Mar  9 16:52:33 2020
 By Aleksey,,,
dumadi (c) dumadi. 2019. All Rights Reserved
</metadata>
<defs>
<font id="Dumadi-PerfectEarth-Regular" horiz-adv-x="841" >
  <font-face 
    font-family="Dumadi - Perfect Earth"
    font-weight="400"
    font-stretch="normal"
    units-per-em="2048"
    panose-1="2 0 5 0 0 0 0 0 0 0"
    ascent="1638"
    descent="-410"
    x-height="1158"
    cap-height="1433"
    bbox="-230 -670 12118 1914"
    underline-thickness="50"
    underline-position="-150"
    unicode-range="U+0020-F002"
  />
<missing-glyph horiz-adv-x="1024" 
d="M325 1148q31 28 58 43q53 30 112 30q92 0 148 -47.5t56 -127.5q0 -49 -23 -98.5t-87 -129.5q-63 -80 -99 -132t-36 -99q0 -38 24 -133h-32q-35 97 -35 148q0 76 81.5 218t81.5 217q0 57 -33 90t-91 33q-38 0 -69 -17q-26 -15 -56 -40v45v0zM389 334l57 58q11 10 20 10
q10 0 22 -11l56 -60q9 -11 9 -20q0 -11 -10 -22l-56 -62q-14 -14 -21 -14q-11 0 -20 10l-61 71q-7 9 -7 18q0 10 11 22v0zM100 0v1434h824v-1434h-824zM150 50h724v1334h-724v-1334z" />
    <glyph glyph-name=".notdef" horiz-adv-x="1024" 
d="M325 1148q31 28 58 43q53 30 112 30q92 0 148 -47.5t56 -127.5q0 -49 -23 -98.5t-87 -129.5q-63 -80 -99 -132t-36 -99q0 -38 24 -133h-32q-35 97 -35 148q0 76 81.5 218t81.5 217q0 57 -33 90t-91 33q-38 0 -69 -17q-26 -15 -56 -40v45v0zM389 334l57 58q11 10 20 10
q10 0 22 -11l56 -60q9 -11 9 -20q0 -11 -10 -22l-56 -62q-14 -14 -21 -14q-11 0 -20 10l-61 71q-7 9 -7 18q0 10 11 22v0zM100 0v1434h824v-1434h-824zM150 50h724v1334h-724v-1334z" />
    <glyph glyph-name=".null" horiz-adv-x="0" 
 />
    <glyph glyph-name="nonmarkingreturn" horiz-adv-x="508" 
 />
    <glyph glyph-name="space" unicode=" " horiz-adv-x="508" 
 />
    <glyph glyph-name="space" unicode="&#xa0;" horiz-adv-x="508" 
 />
    <glyph glyph-name="exclam" unicode="!" horiz-adv-x="303" 
d="M239 1412q0 -1 1 -1l-1 -6l-29 -1013q0 -6 -4 -6q-38 0 -171 -1q0 1 -1 1q-25 738 -34 1023q1 0 1 1l238 2v0zM128 251q70 0 110 -66q15 -29 15 -56v-11q0 -59 -58 -101q-33 -20 -68 -20q-72 0 -114 70q-13 27 -13 53v5q0 74 73 114q26 12 55 12v0z" />
    <glyph glyph-name="quotedbl" unicode="&#x22;" horiz-adv-x="480" 
d="M17 1449v-1l2 1h149l2 -1q-10 -65 -10 -107v-22q0 -75 37 -160q-1 0 -1 -1q-24 -1 -36 -1h-87q-73 118 -73 281v8q0 2 2 2h8l7 1v0zM266 1449h136l2 -1q-10 -67 -10 -111v-16q0 -76 36 -162q-1 0 -1 -1q-26 -1 -38 -1h-84q-11 11 -41 83q-33 83 -33 206l1 2q21 1 32 1v0z
" />
    <glyph glyph-name="numbersign" unicode="#" horiz-adv-x="1097" 
d="M593 1346q0 -1 1 -1q-73 -301 -77 -321h1l173 -5q50 215 76 321q27 1 42 1h142v-1q-1 -11 -70 -326h1l164 -4q0 -1 1 -1l-27 -190q-143 10 -178 10l-53 -254h1q163 -13 167 -15l-22 -179l-2 -1q-176 11 -184 11q-64 -304 -70 -325h-1l-198 4q-11 1 -11 3l78 330l-178 10
q-74 -308 -82 -338h-1q-162 8 -177 8l-1 2l72 339q-180 9 -180 11q10 186 10 207q2 0 2 2q202 -18 211 -18v1q39 181 51 240l-215 13l-1 2q9 147 11 153h1q26 0 240 -6q63 302 67 314q3 0 19 1q148 1 166 1q24 1 31 1v0zM475 854q-4 -15 -59 -245q166 -15 176 -15v1l57 248
h-1q-23 1 -173 11v0z" />
    <glyph glyph-name="dollar" unicode="$" horiz-adv-x="775" 
d="M446 1458l1 -2v-46q0 -10 -1 -32q102 -19 145 -57q122 -90 122 -338q0 -7 -1 -53q0 -8 -12 -8q-198 -22 -205 -22l-1 2q4 51 4 83v10q0 140 -54 197v-1q0 -64 -4 -408q31 -14 108 -85q71 -74 102 -128q75 -124 75 -237v-1q0 -121 -86 -218q-44 -44 -83 -63
q-51 -25 -124 -35q-1 -74 -1 -95q-1 0 -1 -1q-150 10 -155 12v1q1 19 1 88q-23 0 -93 27q-97 47 -137 150q-36 90 -36 226q1 36 1 52q0 7 13 7q190 15 199 15q0 -1 1 -1l-1 -10v-17q0 -122 61 -213q9 316 9 339l1 7q-96 68 -138 103q-67 64 -88 105q-68 109 -68 230
q0 168 136 275q83 54 169 63q5 1 11 1v1q1 8 2 73q1 0 1 1q26 1 127 3v0zM258 1052v-4q0 -69 45 -135l8 271q-53 -54 -53 -132v0zM437 467q-3 -211 -3 -300q76 24 76 113v4q0 88 -73 183v0z" />
    <glyph glyph-name="percent" unicode="%" horiz-adv-x="1221" 
d="M856 1419q198 -109 208 -114v-3q-595 -1010 -609 -1031q-136 -234 -161 -272h-1q-142 76 -151 83v1q484 908 539 1011q166 312 174 325h1v0zM248 1386h21q112 0 186 -127q62 -118 62 -277q0 -188 -87 -314q-69 -91 -172 -91q-151 0 -223 192q-35 98 -35 215q0 192 90 318
q69 84 158 84v0zM176 1022v-13q0 -132 38 -228q22 -45 44 -45q32 0 61 84q23 86 23 187v1q0 155 -52 213q-16 14 -31 14h-2q-57 0 -77 -142q-4 -38 -4 -71v0zM901 807h21q112 0 186 -128q63 -118 63 -276q0 -188 -88 -315q-69 -90 -172 -90q-156 0 -228 206q-30 93 -30 200
q0 202 98 327q67 76 150 76v0zM829 443v-15q0 -146 45 -240q20 -32 37 -32q30 0 58 75q26 88 26 197q0 156 -51 213q-17 14 -32 14h-2q-55 0 -76 -134q-5 -40 -5 -78v0z" />
    <glyph glyph-name="ampersand" unicode="&#x26;" horiz-adv-x="968" 
d="M399 1415q198 0 269 -188q20 -64 20 -133q0 -215 -161 -357q-42 -40 -61 -54q64 -106 102 -162q19 -26 41 -49q14 61 27 217q2 32 4 35q100 -19 231 -35q0 -1 1 -1q-11 -119 -25 -195q-28 -132 -56 -196q20 -19 127 -119q-89 -102 -148 -163l-96 93q-121 -115 -316 -115
q-216 0 -316 176q-42 88 -42 183v13q0 200 180 341l4 5q-99 178 -99 328v23q0 150 79 252q85 101 235 101v0zM315 1117q0 -149 52 -298q118 83 118 257q0 117 -53 186q-21 21 -42 21q-60 0 -72 -115q-1 0 -3 -51v0zM267 365q0 -113 67 -185q34 -30 68 -30h4q67 0 128 106
q-197 211 -231 265q-6 -6 -20 -50q-16 -56 -16 -106v0z" />
    <glyph glyph-name="quotesingle" unicode="'" horiz-adv-x="247" 
d="M17 1449v-1l2 1h150q2 -1 2 -2q-10 -74 -10 -118q0 -82 36 -170v-1q-23 -1 -35 -1h-87q-75 117 -75 290l2 1h8l7 1v0z" />
    <glyph glyph-name="parenleft" unicode="(" horiz-adv-x="486" 
d="M202 1580l234 -7q-1 -4 -37 -73q-53 -114 -98 -270q-79 -300 -79 -592v-47q0 -320 91 -616q49 -146 103 -233l10 -17l-2 -1q-191 4 -219 4q-41 71 -86 194q-39 110 -67 243q-52 255 -52 489v52q0 333 98 641q49 140 104 233v0z" />
    <glyph glyph-name="parenright" unicode=")" horiz-adv-x="487" 
d="M234 1580q52 -87 100 -221q103 -310 103 -679q0 -434 -135 -801q-36 -90 -71 -151q-31 0 -220 -4l-1 2q48 72 93 191q112 310 112 698q0 437 -144 808q-38 88 -71 149q1 0 1 1l233 7v0z" />
    <glyph glyph-name="asterisk" unicode="*" horiz-adv-x="686" 
d="M409 1538l1 -2q-11 -196 -11 -207l-1 -2v-1h1q0 2 109 129q26 -23 128 -123q-3 -4 -196 -184q21 -17 191 -178q-56 -54 -128 -122q-13 12 -88 102q-99 117 -100 118q-147 -175 -186 -220h-1q-122 115 -128 122v1q195 182 195 183q-186 173 -190 178q30 29 129 123
q46 -53 109 -130h1v2q0 6 -13 209l2 1h29q49 0 147 1v0z" />
    <glyph glyph-name="plus" unicode="+" horiz-adv-x="1078" 
d="M633 1178q0 -1 1 -1l-1 -6l-11 -405h1q10 -1 402 -12l1 -2l2 -173l-2 -1q-397 -13 -410 -13l-1 -6l-11 -403l-2 -4q-43 -1 -173 -2q0 1 -1 1l-14 407l-412 -14l-1 2q-1 190 -1 237q1 0 1 1l406 -12l-13 403q1 0 1 1q30 1 39 1q44 0 199 1v0z" />
    <glyph glyph-name="comma" unicode="," horiz-adv-x="247" 
d="M28 167h167q2 0 2 -3q0 -167 -71 -282q0 -2 -3 -6q-30 1 -45 1h-78v1q36 86 36 168v6q0 47 -10 114l2 1v0z" />
    <glyph glyph-name="hyphen" unicode="-" horiz-adv-x="798" 
d="M748 601v-2v-169q0 -8 -1 -44q-1 0 -1 -1q-519 22 -745 31l-1 1q1 127 2 156l1 1q87 3 745 27v0z" />
    <glyph glyph-name="hyphen" unicode="&#xad;" horiz-adv-x="798" 
d="M748 601v-2v-169q0 -8 -1 -44q-1 0 -1 -1q-519 22 -745 31l-1 1q1 127 2 156l1 1q87 3 745 27v0z" />
    <glyph glyph-name="period" unicode="." horiz-adv-x="305" 
d="M129 247q64 0 106 -59q20 -32 20 -69q0 -65 -60 -106q-31 -20 -68 -20q-62 0 -103 54q-24 33 -24 73v2q0 66 64 108q30 17 65 17v0z" />
    <glyph glyph-name="slash" unicode="/" horiz-adv-x="861" 
d="M592 1419q212 -110 219 -116q-421 -848 -553 -1111q-95 -193 -98 -193q-159 82 -160 83q0 1 416 943l174 393l2 1v0z" />
    <glyph glyph-name="zero" unicode="0" horiz-adv-x="827" 
d="M388 1436q265 0 346 -301q43 -159 43 -387v-37q0 -573 -216 -695q-71 -44 -172 -44q-258 0 -343 312q-46 171 -46 419v28q0 541 220 664q73 41 168 41v0zM239 736v-22q0 -345 79 -523q36 -69 69 -69q63 0 110 174q41 172 41 438q0 270 -69 469q-45 112 -83 112
q-55 0 -101 -160q-46 -173 -46 -419v0z" />
    <glyph glyph-name="one" unicode="1" horiz-adv-x="476" 
d="M329 1424q85 -13 85 -21q0 -4 -1 -5q0 -559 13 -1383l-2 -1q-140 -3 -169 -3q-35 1 -51 1q0 1 -1 1q3 226 3 498v138q0 243 -3 401h-1q-47 -23 -96 -64q-10 -10 -21 -26h-1q-31 106 -84 260q158 83 326 201l3 3v0z" />
    <glyph glyph-name="two" unicode="2" horiz-adv-x="755" 
d="M362 1446h1q234 0 310 -203q32 -89 32 -195v-25q0 -293 -182 -586q-46 -75 -150 -193q-1 0 -22 -23h1q318 40 323 41l1 -2q0 -90 3 -243q-2 0 -2 -1q-3 1 -4 1q-433 10 -660 10q-2 8 -8 145q-1 0 -2 22q108 94 193 195q101 127 152 215q148 251 148 440q0 140 -57 235
q-34 46 -77 46h-1q-81 0 -123 -172q-16 -82 -16 -172q1 -54 4 -95q-2 -1 -3 -1q-26 0 -214 -7q-9 66 -9 143v24q0 304 194 376q71 25 168 25v0z" />
    <glyph glyph-name="three" unicode="3" horiz-adv-x="801" 
d="M395 1456q194 0 288 -184q42 -93 42 -185v-24q0 -133 -79 -245q-48 -57 -75 -69l-24 -14q116 -49 175 -187q29 -76 29 -160v-5q0 -215 -136 -329q-100 -80 -241 -80h-3q-250 0 -331 186q-40 93 -40 218v24q0 60 8 121h1q65 -9 219 -17q0 -1 1 -1q-3 -42 -3 -64
q0 -171 75 -282q32 -38 61 -38q65 0 118 75q40 69 40 151q0 138 -108 219q-71 44 -153 44h-37l-2 1l40 211l2 1q13 0 32 -1q68 0 97 30q79 59 110 158q16 50 16 99q0 121 -77 183q-31 20 -67 20q-62 0 -109 -93q-35 -75 -35 -171v-8q0 -31 2 -45q-2 -2 -4 -2
q-131 -7 -212 -16q-8 57 -8 120q0 245 144 315q84 44 244 44v0z" />
    <glyph glyph-name="four" unicode="4" horiz-adv-x="777" 
d="M284 1433q296 -6 364 -14q0 -3 -2 -16l-13 -852q-1 -15 -1 -19l94 2q0 -1 1 -1l-2 -247l-2 -1h-89v-342q0 -2 -2 -2l-221 -2q0 1 -1 1l1 35q0 43 1 308q-372 -5 -402 -6q-3 3 -3 5q-4 93 -7 256q148 397 267 830q15 65 17 65v0zM430 1207q-7 -25 -211 -749h191
q21 734 21 747v2h-1v0z" />
    <glyph glyph-name="five" unicode="5" horiz-adv-x="774" 
d="M696 1432q0 -1 1 -1q-3 -60 -3 -158v-62q0 -2 -2 -2h-119q-168 0 -319 -4q-7 -196 -7 -328q40 54 81 72q71 39 155 39h14q171 0 212 -242q15 -98 15 -217v-50q-2 -356 -177 -451q-74 -39 -172 -39h-17q-241 0 -321 177q-37 94 -37 221q2 107 7 107q203 -14 239 -14l1 -2
v-40q0 -176 62 -277q30 -37 57 -37h6q31 0 75 75q60 123 60 291q0 185 -87 269q-25 18 -46 18q-56 0 -99 -98q-16 -40 -24 -101q-227 24 -240 27v1q18 635 18 810q1 0 1 1q232 0 666 15v0z" />
    <glyph glyph-name="six" unicode="6" horiz-adv-x="744" 
d="M354 1428h14q207 0 274 -177q34 -94 34 -236q0 -22 -2 -83l-2 -1q-148 9 -247 9q0 1 -1 1q1 24 1 36v18q0 191 -38 271q-15 26 -31 26q-77 0 -92 -340q-4 -86 -4 -181v-7h1q77 99 182 99h1q160 0 216 -151q34 -96 34 -258q0 -495 -339 -495q-222 0 -294 204
q-61 148 -61 523q0 398 62 539q79 203 292 203v0zM260 581q0 -214 32 -365q24 -87 65 -87h2q77 0 100 176q4 39 4 79q0 154 -51 255q-26 40 -54 40q-47 0 -98 -97v-1v0z" />
    <glyph glyph-name="seven" unicode="7" horiz-adv-x="700" 
d="M649 1408q0 -1 1 -1q-1 -11 -1 -17q0 -178 -22 -256q-255 -379 -255 -1004v-9q0 -91 4 -161q-1 0 -1 -1q-125 5 -231 8l-2 3q-4 106 -4 170q0 473 136 818q39 97 104 192q2 1 10 13h-1q-235 -2 -386 -6l-1 2q5 156 5 233v1q0 4 22 4q229 0 622 11v0z" />
    <glyph glyph-name="eight" unicode="8" horiz-adv-x="736" 
d="M342 1430h5q209 0 298 -187q37 -87 37 -185v-10q0 -156 -85 -283q-36 -44 -65 -64q-3 0 -3 -2q84 -46 132 -173q25 -79 25 -156q0 -177 -106 -307q-94 -104 -233 -104q-179 0 -280 163q-67 116 -67 257q0 172 96 278q28 25 42 32q-52 49 -68 84q-64 121 -64 262v8
q0 193 115 306q88 81 221 81v0zM223 1064v-8q0 -161 104 -238q11 -7 20 -11q42 37 57 67q56 95 56 211v10q0 125 -64 188q-27 19 -55 19q-64 0 -103 -129q-15 -56 -15 -109v0zM327 578q-56 -45 -81 -143q-11 -46 -11 -90v-24q0 -113 55 -192q27 -30 57 -30q48 0 82 109
q18 59 18 127v3q0 153 -89 223q-25 17 -31 17v0z" />
    <glyph glyph-name="nine" unicode="9" horiz-adv-x="743" 
d="M331 1428h14q216 0 290 -210q58 -153 58 -510v-14q0 -414 -71 -552q-78 -183 -292 -183q-225 0 -280 145q-33 77 -33 213q2 72 2 81q2 0 2 2q128 -8 234 -8h12l2 -1q-1 -44 -1 -52q0 -191 47 -235q8 -7 22 -9q55 0 74 89q23 119 23 336h-1q-56 -37 -121 -37h-4
q-123 0 -218 123q-90 131 -90 312v35q5 356 191 445q63 30 140 30v0zM229 970q0 -175 50 -298q31 -59 59 -59h8q39 0 88 88q-1 9 -1 12q0 200 -31 410q-28 134 -64 134h-5q-72 0 -97 -182q-7 -56 -7 -105v0z" />
    <glyph glyph-name="colon" unicode=":" horiz-adv-x="303" 
d="M121 857h12q53 0 97 -52q23 -35 23 -69v-13q0 -57 -58 -100q-34 -19 -65 -19h-8q-67 0 -109 69q-13 28 -13 56v5q0 64 62 106q30 17 59 17v0zM123 254h4q75 0 115 -73q11 -27 11 -46v-14q0 -60 -62 -104q-35 -17 -65 -17q-70 0 -112 68q-14 30 -14 55v5q0 73 70 113
q27 13 53 13v0z" />
    <glyph glyph-name="semicolon" unicode=";" horiz-adv-x="304" 
d="M121 857h12q65 0 107 -67q14 -30 14 -56v-5q0 -81 -85 -119q-23 -6 -37 -6h-8q-68 0 -111 70q-13 32 -13 56q0 72 72 115q29 12 49 12v0zM30 194h72q1 0 1 -1q1 0 1 1l5 -1h88q2 -1 2 -2v-8q0 -164 -73 -281h-122q-2 0 -2 2q36 85 36 159v23q0 42 -10 107l2 1v0z" />
    <glyph glyph-name="semicolon" unicode="&#x37e;" horiz-adv-x="304" 
d="M121 857h12q65 0 107 -67q14 -30 14 -56v-5q0 -81 -85 -119q-23 -6 -37 -6h-8q-68 0 -111 70q-13 32 -13 56q0 72 72 115q29 12 49 12v0zM30 194h72q1 0 1 -1q1 0 1 1l5 -1h88q2 -1 2 -2v-8q0 -164 -73 -281h-122q-2 0 -2 2q36 85 36 159v23q0 42 -10 107l2 1v0z" />
    <glyph glyph-name="less" unicode="&#x3c;" horiz-adv-x="910" 
d="M764 1190q96 -221 96 -226q-577 -236 -606 -247q0 -2 379 -154q76 -33 227 -93v-1q-10 -28 -96 -226q-764 382 -764 384v179q0 2 184 93q239 121 580 291v0z" />
    <glyph glyph-name="equal" unicode="=" horiz-adv-x="1077" 
d="M1026 1082l1 -2q-1 -147 -1 -188q0 -9 -1 -49q-1 0 -1 -1q-713 24 -1023 34l-1 2q1 141 2 173l2 1q119 3 1022 30v0zM2 629q1023 -29 1023 -31q1 -30 1 -38q0 -28 1 -135q-4 -2 -7 -2l-1017 -33q0 1 -1 1q-1 40 -2 237l2 1v0z" />
    <glyph glyph-name="greater" unicode="&#x3e;" horiz-adv-x="911" 
d="M97 1190q420 -210 764 -383v-180q-1 -2 -765 -384q-71 165 -96 226q17 8 606 247v1q-24 10 -606 247v1q92 219 96 225h1v0z" />
    <glyph glyph-name="question" unicode="?" horiz-adv-x="716" 
d="M342 1446q232 0 301 -140q23 -51 23 -110v-4q0 -187 -163 -424q-106 -139 -86 -438l-3 -1l-237 -5q-5 12 -8 76v21q0 246 108 389q90 119 121 181q58 108 58 195q0 55 -71 87q-15 3 -22 3h-1q-76 0 -110 -70q-10 -41 10 -137q0 -19 3 -59l-2 -1h-239q-3 0 -3 3
q0 12 -1 17q-20 313 129 381q74 36 193 36v0zM322 182h1q95 0 145 -86q14 -31 14 -61q0 -89 -94 -135q-33 -14 -65 -14q-82 0 -134 69q-26 39 -26 80q0 87 93 134q33 13 66 13v0z" />
    <glyph glyph-name="at" unicode="@" horiz-adv-x="1273" 
d="M618 1391q377 0 530 -363q75 -188 75 -416v-17q0 -269 -97 -509q-29 -66 -70 -120q-66 -78 -128 -78q-85 0 -129 151q-15 60 -15 118h-1q-22 -66 -89 -109q-73 -40 -169 -40q-147 0 -221 127q-34 70 -34 150v11q0 179 139 291q35 28 78 49q41 21 113 41q89 21 129 21v1
q-3 119 -9 155q-28 140 -92 140q-58 0 -93 -112q-15 -55 -15 -134q-1 0 -1 -1q-78 -3 -145 -3q-58 1 -72 1l-1 2v41q0 185 103 294q86 84 228 84q335 0 335 -623v-28q0 -61 -10 -344q0 -83 20 -83h1q57 0 98 194q22 114 22 237v17q0 281 -105 484q-24 46 -83 112
q-121 117 -280 117h-21q-145 0 -275 -134q-49 -57 -72 -99q-114 -200 -114 -443v-17q0 -282 133 -500q32 -50 83 -99q73 -63 115 -73q43 -13 110 -13h49q2 0 2 -2q0 -6 9 -142q-3 -1 -10 -2q-147 0 -225 25q-77 26 -161 99q-74 76 -93 113q-54 77 -94 191q-66 194 -66 411
q0 282 142 522q34 59 110 140q169 165 366 165v0zM499 338v-6q0 -74 72 -109q19 -5 28 -5h11q44 0 85 53q46 67 46 188q-1 10 -1 19v24q0 16 -1 42q-106 -22 -171 -80q-69 -64 -69 -126v0z" />
    <glyph glyph-name="A" unicode="A" 
d="M561 1435q11 -39 87 -537q2 -1 143 -900l-5 -2q-21 0 -216 -4q-7 18 -44 268l-249 -15q-37 -231 -41 -243q-211 -6 -236 -2v2q195 1103 206 1171q-33 5 -33 11q30 219 35 225h2l349 24q0 2 2 2v0zM390 1125q0 -9 -83 -633h3l186 20v2q-85 500 -102 611h-4v0z" />
    <glyph glyph-name="B" unicode="B" horiz-adv-x="778" 
d="M273 1435q259 0 344 -217q26 -74 26 -153q0 -182 -99 -291q-6 0 -15 -11v-2q119 -59 182 -234q17 -64 17 -117q0 -221 -247 -327q-144 -59 -366 -59h-35q-39 0 -39 7v1144l-11 -2h-17q-5 0 -5 4l-8 232q24 4 273 26v0zM260 1188v-340h37q96 0 138 158q5 37 5 48
q0 109 -98 136q-11 2 -21 2h-24q-20 0 -37 -4v0zM260 648v-398h4q130 0 208 112q24 50 24 83v19q0 129 -162 178q-43 6 -72 6h-2v0z" />
    <glyph glyph-name="C" unicode="C" horiz-adv-x="744" 
d="M360 1431h7q217 0 292 -213q33 -112 33 -240v-65q0 -35 -7 -35q-230 20 -249 24v102q0 191 -69 191q-62 0 -94 -336q-4 -79 -4 -135v-67q0 -294 76 -401q19 -13 30 -13h9q62 0 78 165q2 26 2 58v3q0 55 -4 99q0 5 227 26q7 -10 7 -102v-34q0 -365 -230 -432
q-37 -10 -78 -10h-32q-153 0 -265 223q-89 215 -89 468v39q0 323 137 548q97 137 223 137v0z" />
    <glyph glyph-name="D" unicode="D" horiz-adv-x="811" 
d="M276 1433q266 0 405 -288q80 -187 80 -399v-35q0 -337 -186 -557q-150 -149 -351 -149h-26q-76 0 -163 21v3q20 971 20 1146q-35 0 -35 17q0 9 -20 215q148 26 276 26v0zM295 1171v-2q0 -90 4 -919q39 0 98 60q54 67 76 150q39 117 39 247v52q0 199 -89 342
q-56 70 -128 70v0z" />
    <glyph glyph-name="E" unicode="E" horiz-adv-x="683" 
d="M631 1435l2 -4v-232q0 -4 -4 -4q-38 0 -349 -13v-449h119q43 0 130 2l2 -4v-215q0 -7 -223 -24q0 -2 -28 -4v-238h349q4 -1 4 -5v-214q0 -8 -232 -13q0 -3 -377 -15q-4 -3 -7 -3q0 3 -2 3q0 3 2 26q0 42 22 1144q-37 5 -37 11q-2 168 -2 221q2 0 2 2q585 26 618 26l11 2
v0z" />
    <glyph glyph-name="F" unicode="F" horiz-adv-x="691" 
d="M630 1435q0 -2 3 -2q6 -173 6 -219l2 -11l-4 -2q-21 0 -362 -17v-458h275q5 0 5 -4v-201q0 -5 -5 -5q-13 0 -275 -21q2 -340 4 -486l-4 -2l-234 6q0 3 -2 3l17 1157q-35 3 -35 15q-6 74 -21 217q0 5 624 28q4 2 6 2v0z" />
    <glyph glyph-name="G" unicode="G" horiz-adv-x="773" 
d="M385 1433h12q341 0 341 -487q0 -11 -2 -78l-4 -2q-235 20 -246 25v79q-20 242 -91 242q-80 0 -107 -439q-2 -61 -2 -102q0 -359 90 -469q16 -9 28 -9h2q56 0 99 131q4 12 4 55q-134 21 -134 27v20q0 71 2 199q2 0 2 2q32 -2 99 -2h9q89 0 247 -2q4 0 7 -129
q0 -386 -210 -489q-75 -27 -139 -27q-231 0 -343 363q-49 179 -49 368q0 381 166 609q97 115 219 115v0z" />
    <glyph glyph-name="H" unicode="H" horiz-adv-x="825" 
d="M299 1435l2 -4l-6 -720l175 24q0 94 9 670q4 2 6 2q59 0 232 2l2 -4q0 -302 -4 -1398l-4 -2q-167 -2 -239 -2l-2 4v481h-175v-452l-3 -4q-204 8 -262 8q0 2 -2 2q2 71 24 1131q-31 0 -31 19q0 13 -21 213q0 5 223 21q6 2 76 9v0z" />
    <glyph glyph-name="I" unicode="I" horiz-adv-x="389" 
d="M282 1433l2 -4v-1403q0 -4 -4 -4h-234q-5 0 -5 4v1145q-2 3 -26 11l-15 223q5 4 282 28v0z" />
    <glyph glyph-name="J" unicode="J" horiz-adv-x="560" 
d="M425 1432q9 -27 32 -317q13 -209 13 -329q0 -604 -208 -737q-55 -28 -106 -28h-11q-65 0 -145 34v3q37 201 41 201q27 -6 37 -6h13q129 0 154 349q4 29 4 112v41q0 203 -32 417q-56 3 -56 13q-31 206 -31 218q0 5 295 29v0z" />
    <glyph glyph-name="K" unicode="K" horiz-adv-x="807" 
d="M247 1432q0 -3 3 -3q2 -163 6 -682v-2h2q11 40 223 687h3l264 -18q0 -2 2 -2l-271 -737q213 -498 278 -684q0 -5 -267 -24q-143 469 -143 472q-3 0 -89 -189l-4 -212q-16 -4 -215 -13l-2 4v1140q0 4 -19 9q-5 11 -18 225q0 5 247 29v0z" />
    <glyph glyph-name="L" unicode="L" horiz-adv-x="670" 
d="M260 1425l2 -4l31 -1197h323q4 0 4 -4v-191q0 -8 -219 -13q-12 -2 -334 -15l-2 5q0 61 -22 1166q-26 2 -26 21l-17 210q0 5 260 22v0z" />
    <glyph glyph-name="M" unicode="M" horiz-adv-x="1084" 
d="M951 1434l2 -5q0 -86 30 -1445q-2 0 -2 -2q-78 -3 -119 -3h-99l-4 3l-18 943v4h-2q0 -9 -122 -741q0 -5 -223 -22q0 -2 -2 -2q-5 0 -70 388q-45 246 -67 383h-2v-13q2 -706 2 -903q0 -4 -236 -18l-2 5l19 1166q-28 0 -28 28l-8 203l4 3q172 0 409 -5q6 0 20 -177
q7 -43 67 -661h2q107 786 122 869h193q44 0 134 2v0z" />
    <glyph glyph-name="N" unicode="N" horiz-adv-x="908" 
d="M785 1419l2 -5q-35 -1369 -39 -1369q-246 -24 -262 -24q-224 886 -224 895h-2v-2q41 -823 44 -902q-3 0 -3 -2q-139 -2 -205 -2h-48q-7 0 -7 41q0 174 -10 1123q-24 4 -31 8l11 223q2 0 2 3q278 -13 278 -20l249 -841h2v2l-11 856q13 5 254 16v0z" />
    <glyph glyph-name="O" unicode="O" horiz-adv-x="796" 
d="M381 1432q258 0 352 -452q24 -127 24 -270q0 -366 -152 -594q-95 -124 -229 -124q-258 0 -354 462q-22 132 -22 260q0 383 161 608q91 110 220 110v0zM273 679v-4q0 -362 88 -445l15 -4h5q41 0 75 129q28 132 28 322q0 331 -66 484q-20 29 -35 29h-9q-68 0 -97 -361
q-4 -63 -4 -150v0z" />
    <glyph glyph-name="P" unicode="P" horiz-adv-x="767" 
d="M254 1432q325 0 435 -269q28 -84 28 -160v-33q0 -215 -169 -418q-124 -117 -201 -139q-15 -9 -85 -28v-351q0 -5 -4 -5l-239 9q0 2 -2 2q2 60 26 1132q-26 2 -26 19l-17 212q0 6 247 29h7v0zM262 1178v-570q111 33 156 108q61 99 61 204q0 162 -115 236q-43 22 -87 22
h-15v0z" />
    <glyph glyph-name="Q" unicode="Q" horiz-adv-x="796" 
d="M377 1432q260 0 352 -473q17 -126 17 -236q0 -303 -109 -520q3 -1 109 -117l-174 -128q-6 0 -56 100q-64 -44 -147 -44q-234 0 -334 397q-35 151 -35 314q0 366 152 590q91 117 225 117v0zM269 688q0 -347 82 -435q12 -9 20 -9h4q15 0 28 20q-30 54 -41 82q52 85 59 91h2
q30 -30 30 -35h2q22 121 22 282v19q0 300 -63 460q-22 30 -37 30h-4q-83 0 -102 -429q-2 0 -2 -76v0z" />
    <glyph glyph-name="R" unicode="R" horiz-adv-x="794" 
d="M223 1429q346 0 479 -264q26 -82 26 -156q0 -248 -172 -481l196 -561l-4 -2q-247 -5 -267 -5l-161 466q-22 -9 -58 -17l10 -375q0 -5 -4 -5l-229 9l-2 4q4 1093 6 1130q-26 5 -26 13l-17 218q22 11 130 22q37 4 93 4v0zM262 1178v-546h2q40 5 120 54q95 111 95 225v24
q0 175 -121 232q-53 11 -85 11h-11v0z" />
    <glyph glyph-name="S" unicode="S" horiz-adv-x="696" 
d="M328 1441q217 3 293 -173q39 -102 40 -239q-17 -5 -231 -34l-2 4l-1 84q-2 157 -90 156q-60 -1 -74 -50q-13 -41 -13 -86v-11q2 -143 202 -298q135 -136 155 -190q63 -108 65 -248q3 -249 -177 -329q-63 -27 -146 -28h-6q-230 -3 -300 180q-27 75 -28 169l-1 24
q-1 69 10 131q42 -4 227 -37q-8 -78 -7 -124q2 -139 88 -138h13q72 1 82 96q4 45 4 51q-1 141 -193 306q-142 141 -175 208q-54 105 -55 202v31q-3 237 183 320q78 23 137 23v0z" />
    <glyph glyph-name="T" unicode="T" horiz-adv-x="769" 
d="M711 1431q0 -2 2 -2l6 -249l-4 -2l-234 -4q28 -1101 28 -1153l2 -16q-2 0 -2 -2q-257 15 -280 15l-2 5q2 233 15 1151q-214 4 -225 4q-4 0 -17 230h2l709 23v0z" />
    <glyph glyph-name="U" unicode="U" horiz-adv-x="794" 
d="M464 1434h225q5 0 5 -7q0 -38 26 -574v-139q0 -706 -351 -706q-252 0 -317 366q-24 134 -24 325v11q0 64 11 464h-2q-24 0 -24 15q-13 185 -13 216l4 3q260 4 297 6l3 -4q-33 -563 -33 -720q0 -435 98 -435q110 0 110 546q-4 244 -19 630l4 3v0z" />
    <glyph glyph-name="V" unicode="V" horiz-adv-x="861" 
d="M527 1434h67q2 0 2 -3q2 0 2 3l11 -3h197q5 0 5 -4q-206 -1369 -213 -1398h-2l-353 -26q-15 89 -182 1171q-31 0 -31 19q-30 202 -30 215l286 10q4 0 141 -1124h2q93 1108 93 1137l5 3v0z" />
    <glyph glyph-name="W" unicode="W" horiz-adv-x="1175" 
d="M1120 1434q5 -1 5 -5q-145 -1319 -154 -1367q-288 -11 -312 -13q-5 0 -41 349q-29 234 -29 255h-2q-58 -623 -63 -637q-307 -13 -342 -13q-4 5 -119 1073q-10 100 -15 100q-20 0 -20 32q-28 180 -28 200h2q141 -3 219 -3h78q7 0 17 -212q7 -54 59 -865h2q102 909 106 919
q204 -17 213 -21q71 -766 78 -852h2q86 1048 91 1060h253v0z" />
    <glyph glyph-name="X" unicode="X" horiz-adv-x="845" 
d="M787 1434q4 -1 4 -5q-193 -656 -221 -747q182 -506 225 -633q-12 -7 -245 -46q-8 21 -138 455h-2q-118 -368 -135 -414h-67q-71 0 -189 -2l-2 5q145 427 210 628l-160 499q-28 0 -28 41q-2 1 -39 190l4 3q199 2 271 2q7 -12 115 -505h2q132 459 154 529h241v0z" />
    <glyph glyph-name="Y" unicode="Y" horiz-adv-x="843" 
d="M789 1434q4 -1 4 -5l-271 -945l19 -455q0 -4 -262 -15l-2 4q-2 243 -2 371v39q0 14 -208 746q-23 0 -26 34q-7 40 -41 197l4 3q221 4 241 4q4 -6 151 -691h2q133 700 139 713h252v0z" />
    <glyph glyph-name="Z" unicode="Z" horiz-adv-x="741" 
d="M689 1434l2 -5q-27 -266 -34 -266l-377 -856q399 -22 409 -26q-13 -150 -17 -241q-4 -1 -4 -4q-635 -18 -666 -18l-2 5v232q0 7 412 910h-2l-371 6q-4 0 -22 234l5 3l667 26v0z" />
    <glyph glyph-name="bracketleft" unicode="[" horiz-adv-x="569" 
d="M2 1580h7q4 0 4 -1q2 0 4 1q452 -8 498 -8q4 -1 4 -3v-2q0 -60 -1 -172l-2 -1h-211q-25 0 -71 -1q0 -119 -6 -1270l-2 -296l292 -5l1 -2v-4q0 -64 -1 -191q-1 0 -1 -1q-53 -1 -83 -1h-190l-5 -1v1l-2 -1h-222l-4 6q-7 0 -8 1q0 54 -1 239q-1 944 -1 1686q-1 22 -1 25l2 1
v0z" />
    <glyph glyph-name="backslash" unicode="\" horiz-adv-x="862" 
d="M219 1436q4 -1 26 -58q25 -56 446 -1054l121 -283q-145 -79 -162 -87q-517 1082 -534 1118q-5 8 -116 244q131 72 219 120v0z" />
    <glyph glyph-name="bracketright" unicode="]" horiz-adv-x="568" 
d="M501 1580q2 -1 3 -1q2 1 5 1h7q2 0 2 -2v-13q0 -1 -1 -1q0 -1 1 -1l-1 -4q0 -749 -1 -1700q-1 -187 -1 -230q-11 0 -11 -7h-1q-92 0 -439 1q-10 0 -62 1l-1 2q-1 126 -1 190v4q0 2 2 2l290 5v1q-7 1148 -7 1395q-1 0 -1 162h-1q-168 1 -250 1h-30q-2 0 -2 2
q-1 117 -1 179v2q0 3 5 3q43 0 496 8v0z" />
    <glyph glyph-name="asciicircum" unicode="^" horiz-adv-x="1164" 
d="M662 1530q12 -21 228 -485q224 -476 224 -480q-263 -120 -266 -120q-47 119 -290 764h-2q0 -2 -283 -748q-6 -16 -10 -16q-255 116 -263 121v1l450 963h212v0z" />
    <glyph glyph-name="underscore" unicode="_" horiz-adv-x="1078" 
d="M2 -56q84 0 1023 -5q0 -1 1 -1q1 -24 2 -174l-2 -1l-1023 -21q0 1 -1 1q-1 30 -2 200l2 1v0z" />
    <glyph glyph-name="grave" unicode="`" horiz-adv-x="580" 
d="M132 1430q37 -30 398 -339q-1 -3 -96 -102h-1q-429 296 -433 301q131 140 132 140v0z" />
    <glyph glyph-name="a" unicode="a" horiz-adv-x="746" 
d="M364 1119q332 0 334 -373l-2 -259q0 -115 -20 -501q-2 0 -2 -2q-197 15 -197 22q7 89 7 138v5h-3q-22 -72 -89 -115q-57 -33 -136 -33q-193 0 -247 200q-9 41 -9 84q0 278 304 377q99 29 173 29v19q0 175 -65 222q-16 13 -34 13q-96 0 -124 -135q-2 -33 -2 -61v-4
q0 -4 -9 -7q-124 -2 -171 -2q-41 0 -41 11q0 274 201 350q58 22 132 22v0zM230 331v-7q0 -77 78 -108q8 -4 24 -4h6q79 0 119 125q14 48 34 117v46q0 11 -3 37q-109 -18 -171 -68q-87 -65 -87 -138v0z" />
    <glyph glyph-name="b" unicode="b" horiz-adv-x="783" 
d="M5 1414q228 -15 247 -15q0 -4 4 -4q-2 -11 -2 -13l-15 -360q93 61 180 61q178 0 275 -286q39 -139 39 -260v-48q0 -250 -128 -407q-78 -81 -173 -81h-11q-115 0 -206 128q-20 33 -20 41h-2v-166q0 -7 -180 -16h-6q0 3 -2 3q-2 136 -2 177q0 387 -3 1244l5 2v0zM226 517
q0 -185 95 -290q27 -20 52 -20q77 0 117 213q13 79 13 143q0 197 -97 297q-25 19 -50 19q-109 0 -130 -345v-17v0z" />
    <glyph glyph-name="c" unicode="c" horiz-adv-x="752" 
d="M364 1137h13q233 0 308 -260q13 -60 17 -158q-2 -22 -2 -54l-4 -2q-239 21 -243 26v41q0 173 -67 238q-11 9 -24 9h-4q-53 0 -93 -195q-20 -116 -20 -213q0 -263 80 -399q20 -21 39 -21q50 0 87 154q9 52 11 130q-2 15 -2 26l4 2q33 0 199 2q30 2 37 2l2 -4
q0 -359 -175 -440q-71 -33 -167 -33q-293 0 -347 384q-13 103 -13 208q0 404 221 525q68 32 143 32v0z" />
    <glyph glyph-name="d" unicode="d" horiz-adv-x="782" 
d="M730 1414l2 -4q-2 -944 -2 -1372q0 -34 -4 -50q-174 9 -187 13v169h-2q-6 -37 -78 -110q-76 -59 -147 -59h-11q-188 0 -271 271q-30 109 -30 219v43q0 253 126 443q85 106 192 106q82 0 176 -61v2l-15 369q-2 0 -2 2l6 4l247 15v0zM230 558q0 -164 62 -299q34 -52 68 -52
q95 0 140 223q7 54 7 89q0 200 -67 321q-31 39 -65 39q-80 0 -130 -180q-15 -71 -15 -141v0z" />
    <glyph glyph-name="e" unicode="e" horiz-adv-x="750" 
d="M364 1167h17q208 0 282 -199q35 -108 35 -260q-3 -178 -11 -178l-440 -32v-3q15 -182 43 -249q32 -97 72 -97h2q47 0 85 141q10 58 10 104q3 0 3 2q217 -11 236 -11l2 -4q0 -134 -67 -265q-81 -128 -273 -128q-250 0 -325 280q-35 131 -35 316q0 426 221 551
q69 32 143 32v0zM249 686l206 11v2q0 209 -69 299q-17 9 -22 9h-6q-46 0 -85 -156q-13 -47 -24 -165v0z" />
    <glyph glyph-name="f" unicode="f" horiz-adv-x="542" 
d="M409 1414q80 0 80 -8l-15 -202h-2q-34 7 -56 7h-9q-89 0 -89 -113v-2q0 -6 106 -13q54 -7 74 -11q-4 -76 -6 -234l-5 -2q-35 0 -171 4v-26q0 -334 37 -982l-5 -2q-83 0 -253 -5q0 2 -2 2q11 546 11 905q0 30 2 108h-83q-6 0 -17 197q-2 0 -6 65l4 2q68 -2 102 -2v2
q0 217 89 269q67 41 214 41v0z" />
    <glyph glyph-name="g" unicode="g" horiz-adv-x="763" 
d="M499 1354q50 -31 145 -72q34 -19 46 -28q0 -47 -81 -132q-12 -8 -43 -35q132 -135 132 -477q0 -320 -190 -446q-70 -35 -148 -35q-74 0 -156 30q-9 -11 -9 -19v-5q0 -67 230 -95q114 -21 189 -62q99 -63 99 -178q0 -202 -212 -267q-79 -17 -141 -17q-169 0 -269 141
q-30 60 -30 117q0 59 26 89q47 -29 150 -50q52 -7 52 -13v-26q0 -119 80 -141h19q68 0 109 104v19q0 82 -202 107q-124 22 -184 60q-67 50 -67 156v3q3 131 60 155v2q-104 157 -104 378v35q7 403 241 494q57 21 121 21h24q88 92 102 143q0 4 11 44v0zM234 630v-15
q0 -178 87 -319q24 -22 39 -22q81 0 113 269q2 45 2 80q0 221 -72 360q-24 30 -39 30h-8q-50 0 -98 -166q-24 -106 -24 -217v0z" />
    <glyph glyph-name="h" unicode="h" horiz-adv-x="737" 
d="M230 1414q0 -2 2 -2l-7 -438v-2h2q36 68 141 106q33 11 61 11h22q162 0 212 -282q24 -149 24 -266v-15q0 -147 -20 -527l-4 -2h-69q-63 0 -174 2q0 2 -2 2q13 262 18 501q0 368 -96 368h-4q-59 0 -91 -150q-4 -27 -4 -45q0 -291 13 -652q-3 0 -3 -2q-15 2 -17 2l-225 7
q-9 3 -9 6v1359q0 5 11 6q102 5 219 13v0z" />
    <glyph glyph-name="i" unicode="i" horiz-adv-x="328" 
d="M256 1086l2 -5q0 -163 -13 -1077l-5 -3q-158 -2 -206 -2q-4 17 -4 41l-11 1007l-2 34l4 3h219l16 2v0zM145 1149q-57 0 -97.5 43t-40.5 103t40.5 102.5t97.5 42.5q58 0 98.5 -42.5t40.5 -102.5t-40.5 -103t-98.5 -43v0z" />
    <glyph glyph-name="j" unicode="j" horiz-adv-x="305" 
d="M28 1086h147h76q-5 -430 -5 -565v-4q0 -28 2 -43q-2 -15 -2 -44v-17q0 -897 -398 -897q-68 2 -78 6q6 95 6 224v13q0 3 7 6h15q151 0 197 286q24 148 24 390q0 178 5 643l4 2v0zM145 1149q-57 0 -97.5 43t-40.5 103t40.5 102.5t97.5 42.5q58 0 98.5 -42.5t40.5 -102.5
t-40.5 -103t-98.5 -43v0z" />
    <glyph glyph-name="k" unicode="k" horiz-adv-x="761" 
d="M4 1416q47 0 247 -4l2 -5l-19 -778q-2 -19 -2 -21v-3h2q13 40 214 490q209 -59 226 -71l-254 -514q209 -413 256 -509q-15 -7 -243 -48q-145 343 -145 347h-4q-48 -100 -48 -109v-160q0 -28 -6 -28q-163 2 -211 2q-4 10 -4 20l-15 1389l4 2v0z" />
    <glyph glyph-name="l" unicode="l" horiz-adv-x="295" 
d="M22 1418q11 -2 13 -2q171 -4 199 -4q0 -3 2 -3l-1 -1410q-2 0 -2 -3l-209 5l-2 4v197q0 424 -2 1214q2 0 2 2v0z" />
    <glyph glyph-name="m" unicode="m" horiz-adv-x="1158" 
d="M451 1198q152 0 195 -199h4q14 50 72 115q70 67 158 67q228 0 228 -652q0 -151 -2 -549q-2 0 -2 -2l-247 9q-2 4 -2 6q-3 373 -3 508q0 401 -85 401q-63 -12 -78 -148v-592l-4 -2q-172 -2 -234 -2l-2 4q8 652 -37 755q-14 22 -22 24h-11q-95 0 -112 -499l-5 -191
q3 -61 5 -247l-5 -2h-186q-15 0 -48 -2l-2 4l-26 1120l5 2q120 -2 192 -2h11l5 -2q-5 -54 -5 -123v-4h2q84 203 241 203v0z" />
    <glyph glyph-name="n" unicode="n" horiz-adv-x="759" 
d="M446 1167q103 0 178 -115q85 -145 85 -479v-7q0 -99 -20 -546v-19q-2 0 -2 -2q-125 -3 -195 -3h-39l-5 3q31 300 31 548q0 293 -57 375q-16 17 -28 17h-8q-63 0 -107 -145q-39 -157 -39 -420q3 -146 13 -401l-4 -3h-141q-25 0 -80 -2l-2 5l-26 1139q2 0 2 2
q100 -2 152 -2h54l4 -2q-4 -57 -4 -143v-4h2q49 130 152 184q51 20 84 20v0z" />
    <glyph glyph-name="o" unicode="o" horiz-adv-x="793" 
d="M352 1164l28 1q191 6 309 -247q59 -154 63 -299l2 -45q8 -262 -125 -455q-98 -114 -216 -118h-28q-195 -6 -313 257q-57 147 -61 291l-2 51q-7 219 96 407q99 152 247 157v0zM245 616l2 -63q8 -237 92 -367q36 -36 56 -35q53 1 93 137q30 144 24 305q-9 283 -98 395
q-24 23 -44 23l-8 -1q-84 -2 -115 -270q-4 -78 -2 -124v0z" />
    <glyph glyph-name="p" unicode="p" horiz-adv-x="784" 
d="M6 1131q186 -8 186 -15v-137h3q22 62 97 109q69 32 132 32q219 0 293 -351q17 -109 17 -191q0 -270 -141 -475q-85 -100 -177 -100h-20q-68 0 -156 56h-2q0 -41 17 -522q-20 -4 -253 -20l-2 5q0 444 4 1607q2 0 2 2v0zM225 630q0 -119 46 -304q39 -108 86 -108h15
q68 0 111 160q22 96 22 170q0 262 -89 375q-25 20 -48 20q-72 0 -123 -165q-20 -78 -20 -148v0z" />
    <glyph glyph-name="q" unicode="q" horiz-adv-x="782" 
d="M726 1193q0 -2 2 -2q2 -183 2 -243q0 -536 2 -1450q-2 0 -2 -2l-4 2q-17 0 -248 15q0 2 -2 2q2 19 2 22l16 514h-3q-87 -57 -156 -57h-23q-104 0 -198 137q-114 201 -114 455v54q0 253 121 423q81 93 186 93q131 0 213 -111q17 -28 17 -34h2v167q0 7 180 13q4 2 7 2v0z
M227 575q0 -245 89 -347q26 -19 43 -19h15q83 0 120 273q13 128 13 184q0 169 -87 280q-32 28 -59 28q-97 0 -130 -301q-4 -47 -4 -98v0z" />
    <glyph glyph-name="r" unicode="r" horiz-adv-x="709" 
d="M445 1132h15q113 -3 202 -92q8 -17 8 -26q-94 -222 -101 -232h-2q-103 102 -178 104q-93 2 -127 -155q-15 -81 -18 -191v-24q-3 -127 14 -490q0 -4 -5 -17q-99 -2 -193 0q-8 1 -39 -1q-5 0 -7 1126h2q15 -3 26 -3q113 -3 186 0l2 -5q-6 -104 -8 -175v-7h2q31 105 97 152
q61 37 124 36v0z" />
    <glyph glyph-name="s" unicode="s" horiz-adv-x="667" 
d="M310 1162h22q286 0 286 -344v-51q0 -8 -210 -27q0 2 -2 2q4 29 4 78v16q0 133 -58 170q-17 7 -22 7q-59 0 -86 -98q-5 -17 -5 -44q0 -147 209 -273q184 -156 184 -337v-2q0 -143 -120 -235q-75 -51 -186 -51q-226 0 -286 162q-31 72 -31 215v2q0 29 11 29l195 16
q0 -3 2 -3q-2 -19 -2 -29q0 -189 89 -230q8 -5 17 -5h9q59 0 76 82q2 8 2 25v2q0 155 -246 313q-162 134 -162 315q0 165 148 255q74 40 162 40v0z" />
    <glyph glyph-name="t" unicode="t" horiz-adv-x="535" 
d="M131 1399q178 37 199 33v-2l11 -311h118q25 0 35 -4q-9 -218 -13 -218q-118 -11 -142 -11v-2q0 26 2 -13q-2 -235 -2 -324q-10 -229 30 -283q25 -17 56 -17h7q15 0 41 4l2 -4q4 -212 9 -271l-5 -2h-73q-185 0 -254 186q-52 104 -32 565v159h-2q-22 0 -105 -6l-2 4
q-11 217 -11 228q6 4 122 11q2 198 2 248q0 30 7 30v0z" />
    <glyph glyph-name="u" unicode="u" horiz-adv-x="717" 
d="M8 1109q137 -17 212 -27q0 -1 4 -7q5 -92 5 -359q6 -466 113 -490h6q89 0 107 388q4 99 4 180q0 159 -11 394q2 0 2 2q86 -4 180 -4q27 2 31 2l2 -4v-18q0 -593 4 -1105q-50 -15 -184 -47q0 2 -2 2q2 37 4 165v2h-2q-33 -94 -132 -152q-63 -26 -102 -26q-174 0 -221 249
q-28 136 -28 369q0 313 6 486h2v0z" />
    <glyph glyph-name="v" unicode="v" horiz-adv-x="733" 
d="M477 1171q40 -2 58 -2h124q15 0 24 -4q-115 -870 -150 -1125q0 -4 -362 -28q-9 31 -171 1107q4 2 6 2q172 4 187 4q4 2 6 2q11 -54 141 -903h2q5 51 135 947v0z" />
    <glyph glyph-name="w" unicode="w" horiz-adv-x="1143" 
d="M1090 1186q0 -2 3 -2q-88 -1152 -91 -1175h-276q-11 0 -32 -2q-4 0 -113 507q-35 151 -37 169h-2q-104 -627 -108 -635q-271 9 -327 9q-4 0 -107 1054h2q25 0 215 4l15 3q4 0 54 -835h3q117 640 136 730h2l267 13q9 -25 130 -726h2q0 3 2 22q0 108 13 849q0 4 249 15v0z
" />
    <glyph glyph-name="x" unicode="x" horiz-adv-x="785" 
d="M470 1195q211 -28 245 -35l2 -4q-223 -555 -225 -568q204 -486 243 -585l-5 -2h-240q-5 3 -52 156q-5 18 -48 158h-2q0 -8 -104 -299l-239 -4l-2 4l187 548q-220 555 -220 560q2 0 2 2q95 -2 145 -2h65q7 0 55 -133q5 -5 87 -223h2q93 405 100 427h4v0z" />
    <glyph glyph-name="y" unicode="y" horiz-adv-x="799" 
d="M210 1123q32 -146 158 -745h2q0 11 132 793q47 -2 70 -2h24q52 0 151 -2q0 -2 2 -2l-366 -1634h-2q-236 34 -254 39q0 8 126 448q-234 982 -253 1075q6 2 210 30v0z" />
    <glyph glyph-name="z" unicode="z" horiz-adv-x="629" 
d="M570 1158l3 -5q4 -168 4 -222q0 -2 2 -9l-305 -672q272 -9 303 -9q2 -4 2 -6q0 -49 -2 -226l-4 -2l-570 18q-3 4 -3 6q0 28 3 187l346 713h-2q-302 -20 -325 -20q0 -2 -2 -2q-4 0 -11 231l4 2l557 16v0z" />
    <glyph glyph-name="braceleft" unicode="{" horiz-adv-x="655" 
d="M540 1643h63q2 0 2 -2q-1 -123 -1 -183l-2 -1q-209 0 -256 -45q-35 -28 -35 -95q0 -44 32 -249q23 -173 23 -278q-38 -37 -75 -58q-22 -13 -27 -18v-1q51 -29 93 -66l9 -11q0 -151 -50 -459q-5 -47 -5 -67q0 -85 61 -111q60 -28 222 -28h8q2 0 2 -3q0 -56 1 -183l-2 -1
h-13q-263 0 -336 34q-31 10 -70 45q-60 60 -60 221q0 126 48 528q-169 100 -172 101v1q1 2 172 101q-48 402 -48 530q0 185 82 238q69 60 334 60v0z" />
    <glyph glyph-name="bar" unicode="|" horiz-adv-x="218" 
d="M2 1583q160 -8 166 -10v-1q0 -222 -5 -1373q0 -69 -2 -579q-1 0 -1 -1l-158 6q-1 2 -1 3q0 837 -1 1954l2 1v0z" />
    <glyph glyph-name="braceright" unicode="}" horiz-adv-x="655" 
d="M2 1643h63q260 0 332 -58q84 -53 84 -241q0 -129 -48 -529q164 -95 172 -101q0 -1 -172 -102q48 -399 48 -528q0 -159 -58 -219q-31 -31 -67 -45q-30 -13 -92 -24q-75 -12 -248 -12h-14q-2 0 -2 2q1 108 1 162v12q0 11 3 11h10q202 0 248 47q32 28 32 93q0 44 -34 263
q-21 168 -21 263q39 40 73 57q30 20 30 21q-53 30 -91 63l-12 13q0 148 50 460q5 42 5 69q0 82 -61 109q-64 28 -230 28q-2 4 -2 8v16q0 56 -1 161l2 1v0z" />
    <glyph glyph-name="asciitilde" unicode="~" horiz-adv-x="1079" 
d="M221 866h20q111 0 305 -77q166 -63 275 -63h3q104 0 202 48l1 -2q1 -125 2 -172q-116 -62 -244 -62h-9q-99 0 -307 49q-128 28 -217 28q-125 0 -249 -50l-1 2q-1 171 -1 223q-1 13 -1 15q115 61 221 61v0z" />
    <glyph glyph-name="exclamdown" unicode="&#xa1;" horiz-adv-x="304" 
d="M127 1029q71 0 113 -68q14 -28 14 -54v-11q0 -53 -50 -95q-35 -26 -74 -26h-6q-67 0 -109 67q-15 30 -15 55v6q0 76 78 116q28 10 49 10v0zM37 641q159 -2 171 -2q3 -5 3 -11q0 -32 27 -1187q2 -77 2 -107q1 -2 1 -3q-1 0 -1 -1q-157 2 -239 2l-1 2q5 180 35 1306l2 1v0z
" />
    <glyph glyph-name="cent" unicode="&#xa2;" horiz-adv-x="751" 
d="M511 1389q100 -41 104 -44v-1q-68 -223 -68 -226q58 -40 86 -90q68 -106 68 -280q0 -55 -4 -55q-51 4 -242 23l-1 2v33q0 30 -2 51h-1q-165 -548 -165 -551q36 -105 75 -105t74 92q26 81 26 182v32l-1 5l2 1l238 4l1 -2v-22q0 -324 -165 -414q-69 -37 -177 -37
q-77 0 -145 29q0 -4 -99 -326q-74 29 -76 32v1l99 349q-138 133 -138 508q0 377 169 520q85 67 194 67h16q32 0 66 -7q63 224 65 229h1v0zM245 590v-37q0 -34 3 -89h1q2 10 148 525q-19 18 -35 18h-1q-57 0 -97 -192q-19 -115 -19 -225v0z" />
    <glyph glyph-name="sterling" unicode="&#xa3;" horiz-adv-x="805" 
d="M375 1425q174 0 379 -73l1 -3l-68 -189h-1q-202 111 -322 111h-10q-103 0 -138 -85q-12 -36 -12 -76q0 -95 66 -259q18 -55 27 -88q168 -3 236 -3q25 -1 33 -1q0 -1 1 -1l-2 -143l-3 -1h-234q8 -54 8 -101v-22q0 -130 -55 -267h1l454 -6q3 0 9 -3l-2 -224l-3 -1h-320
l-6 -1v1l-3 -1h-359q-4 0 -38 142q-1 0 -1 3q115 166 115 396q0 28 -3 83h-122q-3 0 -3 2q3 141 3 150q1 0 1 1q51 -1 76 -1h22q-17 78 -78 323q-15 68 -15 109v1q0 150 204 208q75 19 162 19v0z" />
    <glyph glyph-name="currency" unicode="&#xa4;" horiz-adv-x="924" 
d="M74 1168q128 -117 145 -136q99 65 203 65h10q113 0 214 -71q17 14 154 142q72 -77 74 -81l-149 -140v-1q70 -100 70 -210v-9q0 -103 -59 -196q58 -53 138 -128v-1q-14 -17 -74 -81l-137 127q-106 -84 -230 -84h-12q-115 0 -217 77l-128 -118h-2q-10 9 -74 79q1 2 127 119
q-65 99 -65 202v15q0 115 77 217v2l-139 130q14 17 74 81v0zM224 730q0 -142 104 -226q48 -33 99 -33h6q97 0 166 115q34 69 34 145q0 135 -97 219q-50 40 -107 40h-1q-115 0 -182 -141q-22 -59 -22 -119v0z" />
    <glyph glyph-name="yen" unicode="&#xa5;" horiz-adv-x="1095" 
d="M840 1296q35 0 97 -1q0 -1 2 -1l-172 -534h272q2 -1 2 -3v-103q0 -2 -2 -2h-305q-2 0 -27 -77l-35 -113h370q3 0 3 -2v-104q0 -2 -3 -2h-385q12 -273 17 -370l-2 -1l-273 -11q0 1 -2 1q-1 112 -1 174v83q0 45 -1 124h-393q-2 0 -2 2v104q0 2 2 2h362v1l-59 189h-299
q-2 0 -2 2v103q0 3 2 3h265q-159 493 -164 512h1l255 5q3 0 111 -451q3 -7 49 -196h1q88 409 145 666h171v0z" />
    <glyph glyph-name="brokenbar" unicode="&#xa6;" horiz-adv-x="289" 
d="M36 1400q127 -1 172 -1q2 0 31 -833l-2 -1q-170 1 -236 1l-1 2l33 826q1 6 3 6v0zM238 379l1 -2q-1 -47 -30 -831q-2 -1 -3 -1q-54 0 -171 -1q-2 4 -2 7l-33 826l2 1q30 0 236 1v0z" />
    <glyph glyph-name="section" unicode="&#xa7;" horiz-adv-x="676" 
d="M330 1377h11q186 0 249 -153q34 -83 34 -212q0 -3 -206 -27v1l2 69q0 96 -33 128q-18 16 -39 16h-11q-43 0 -58 -31q-16 -40 -16 -85v-9q0 -123 155 -249q86 -82 96 -100q112 -133 112 -305q0 -215 -153 -284q104 -130 104 -289v-12q0 -200 -141 -274q-65 -31 -149 -31
q-192 0 -257 144q-30 74 -30 161v28q0 50 9 113q1 0 1 1q188 -33 198 -36v-1q-7 -85 -7 -105q0 -125 77 -125h8q53 0 68 47q12 44 12 76v8q0 116 -144 248q-79 80 -96 93q-29 33 -39 54q-86 114 -86 250q0 222 159 289q4 2 6 2v1q-116 132 -116 284v6q0 181 109 260
q71 49 171 49v0zM211 497q0 -111 74 -186q29 -21 38 -21h14q45 0 69 53q12 31 12 68q0 95 -55 174q-33 35 -70 35q-53 0 -75 -67q-7 -27 -7 -56v0z" />
    <glyph glyph-name="dieresis" unicode="&#xa8;" horiz-adv-x="600" 
d="M105 1271q55 0 89 -56q10 -23 10 -41v-9q0 -55 -58 -89q-23 -9 -40 -9h-5q-50 0 -83 45q-18 27 -18 58q0 63 67 95q19 6 38 6v0zM448 1271q60 0 92 -57q10 -20 10 -40v-10q0 -53 -56 -87q-23 -10 -44 -10h-4q-55 0 -88 55q-12 23 -12 48q0 61 62 93q21 8 40 8v0z" />
    <glyph glyph-name="copyright" unicode="&#xa9;" horiz-adv-x="1012" 
d="M476 1329h10q176 0 322 -158q98 -118 133 -267q21 -82 21 -164v-18q0 -194 -107 -366q-28 -44 -85 -102q-132 -119 -290 -119q-176 0 -317 150q-95 109 -132 236q-31 106 -31 212q0 245 150 432q58 64 88 82q115 82 238 82v0zM94 731q0 -181 103 -325q60 -77 122 -110
q79 -44 153 -44h7q1 0 1 -1l2 1h9q121 0 234 107q72 80 100 154q43 106 43 219q0 197 -121 348q-116 132 -268 132q-151 0 -268 -137q-117 -147 -117 -344v0zM487 1103h7q117 0 176 -105q36 -70 36 -158v-38q0 -7 -2 -11q-146 14 -159 16v21q0 121 -46 165q-11 5 -16 5
q-37 0 -63 -130q-12 -69 -12 -144v-24q0 -148 45 -242q17 -24 27 -24h5q31 0 55 90q10 49 10 96q-1 11 -1 17l2 1q123 2 155 3l1 -2q0 -236 -114 -288q-44 -21 -99 -21h-19q-147 0 -201 165q-27 88 -27 216v12q2 278 141 355q44 25 99 25v0z" />
    <glyph glyph-name="ordfeminine" unicode="&#xaa;" horiz-adv-x="496" 
d="M227 1329h6q162 0 200 -244q13 -82 13 -186q0 -62 -13 -317v-4l-2 -1q-117 10 -125 12q3 34 5 95v1h-1q-19 -55 -62 -78q-34 -19 -85 -19q-109 0 -151 106q-12 38 -12 76q0 163 170 233q76 25 113 25q0 1 12 2q-1 2 -1 3q0 146 -41 175q-9 10 -24 10q-41 0 -62 -85
q-6 -34 -6 -72q-1 0 -1 -1q-42 -1 -62 -1h-76q-2 0 -2 2v13q0 182 120 238q41 17 87 17v0zM147 797q0 -52 52 -73q15 -1 16 -2q39 0 69 52q18 43 18 97v33q0 8 -1 27q-65 -13 -109 -51q-45 -43 -45 -83v0z" />
    <glyph glyph-name="guillemotleft" unicode="&#xab;" horiz-adv-x="719" 
d="M0 479l342 303h14v-37l-205 -266l205 -266v-37h-14zM313 479l342 303h14v-37l-205 -266l205 -266v-37h-14z" />
    <glyph glyph-name="logicalnot" unicode="&#xac;" horiz-adv-x="890" 
d="M0 767h840v-491l-1 -1h-98v392h-741v100z" />
    <glyph glyph-name="registered" unicode="&#xae;" horiz-adv-x="12168" 
d="M651 1099v-374l3 -8q23 -56 56 -81q29 -22 56 -22h6q31 4 61.5 38.5t46.5 97.5q13 50 13 103q0 13 -1 27q-4 67 -28 124.5t-56.5 76t-63.5 18.5h-93v0zM884 576l82 -116q100 -141 150 -141h34v-50h-346v50h45q30 0 30 22q0 29 -69 114l-75 102q-42 0 -84 42v-159
q0 -121 36 -121h53v-50h-316v50h43q37 0 37 121v538q0 121 -37 121h-43v70h356q64 -1 125 -42q60 -41 92.5 -114t32.5 -152q0 -78 -32 -150.5t-114 -134.5v0zM740 1456q145 0 280 -56.5t239 -160.5q102 -101 158.5 -238t56.5 -283q0 -147 -56.5 -282t-162.5 -240
q-105 -105 -239 -159.5t-283 -54.5q-146 0 -278 55.5t-238 160.5q-106 104 -161.5 237.5t-55.5 282.5q0 148 55.5 283t159.5 238q102 104 238.5 160.5t286.5 56.5v0zM257 1197q-95 -96 -146 -219.5t-51 -259.5q0 -137 51 -259t148 -219q98 -96 219 -147t256 -51
q137 0 259.5 50.5t219.5 145.5q97 98 149 221.5t52 258.5q0 134 -52 259.5t-145 219.5q-96 96 -220 147.5t-258 51.5q-137 0 -262 -51.5t-220 -147.5v0zM11636 1333q177 0 319 -150q86 -97 127 -223q36 -111 36 -225q0 -213 -115 -386q-95 -139 -244 -191q-61 -19 -117 -19
h-13q-159 0 -298 136q-85 92 -124 190q-51 131 -51 265v14q0 221 132 403q95 125 239 170q57 16 109 16v0zM11250 747v-23q0 -162 96 -306q121 -163 292 -163q156 0 278 147q107 147 107 334q0 179 -99 321q-63 79 -112 106q-83 52 -168 52h-16q-132 0 -249 -121
q-85 -101 -110 -213q-19 -68 -19 -134v0zM11574 1130h17q151 0 223 -108q30 -54 30 -115v-5q0 -130 -113 -256l99 -284q0 -1 -16 -2q-22 0 -118 -2q-59 232 -60 234q-10 -5 -31 -9v-202q0 -2 -2 -2q-108 4 -121 4q-3 0 -8 2l14 607q-14 0 -14 12q-10 104 -10 114h2
q61 12 108 12v0zM11605 995v-292h1q19 0 53 29q53 57 53 138q0 92 -70 121q-16 4 -27 4h-10v0z" />
    <glyph glyph-name="macron" unicode="&#xaf;" horiz-adv-x="670" 
 />
    <glyph glyph-name="degree" unicode="&#xb0;" horiz-adv-x="606" 
d="M279 1372q-86 0 -147.5 -61t-61.5 -148t61 -147t148 -60t147 60t60 147t-60.5 148t-146.5 61v0zM279 1442q115 0 196 -81.5t81 -196.5q0 -114 -82 -196t-197 -82q-117 0 -197 81t-80 197t81.5 197t197.5 81v0z" />
    <glyph glyph-name="plusminus" unicode="&#xb1;" horiz-adv-x="1014" 
 />
    <glyph glyph-name="uni00B2" unicode="&#xb2;" horiz-adv-x="1014" 
 />
    <glyph glyph-name="uni00B3" unicode="&#xb3;" horiz-adv-x="1014" 
 />
    <glyph glyph-name="acute" unicode="&#xb4;" horiz-adv-x="580" 
d="M398 1430l132 -140q-4 -5 -433 -301h-1q-96 99 -96 102q361 309 398 339v0z" />
    <glyph glyph-name="uni00B5" unicode="&#xb5;" horiz-adv-x="1180" 
 />
    <glyph glyph-name="paragraph" unicode="&#xb6;" horiz-adv-x="886" 
d="M836 1435v-70h-127v-1365h-82v1365h-166v-1365h-84v738q-174 8 -275.5 102.5t-101.5 245.5q0 157 107.5 253t285.5 96h443v0z" />
    <glyph glyph-name="periodcentered" unicode="&#xb7;" horiz-adv-x="300" 
d="M16 740l82 84q15 14 29 14q13 0 31 -16l80 -86q12 -16 12 -29q0 -15 -14 -31l-80 -88q-20 -20 -29 -20q-16 0 -29 14l-88 101q-10 13 -10 26q0 15 16 31v0z" />
    <glyph glyph-name="periodcentered" unicode="&#x2219;" horiz-adv-x="300" 
d="M16 740l82 84q15 14 29 14q13 0 31 -16l80 -86q12 -16 12 -29q0 -15 -14 -31l-80 -88q-20 -20 -29 -20q-16 0 -29 14l-88 101q-10 13 -10 26q0 15 16 31v0z" />
    <glyph glyph-name="cedilla" unicode="&#xb8;" horiz-adv-x="458" 
d="M0 -290q85 -52 152 -52q66 0 94.5 21.5t28.5 66.5t-49 64q-40 16 -102 16q-16 0 -34 -2l48 176h63l-37 -104q32 4 62 5q86 0 134 -40.5t48 -113.5q0 -76 -58.5 -120.5t-160.5 -44.5q-109 0 -189 32v96v0z" />
    <glyph glyph-name="uni00B9" unicode="&#xb9;" horiz-adv-x="1014" 
 />
    <glyph glyph-name="ordmasculine" unicode="&#xba;" horiz-adv-x="718" 
 />
    <glyph glyph-name="guillemotright" unicode="&#xbb;" horiz-adv-x="719" 
d="M14 176h-14v37l205 266l-205 266v37h14l342 -303zM327 176h-14v37l205 266l-205 266v37h14l342 -303z" />
    <glyph glyph-name="onequarter" unicode="&#xbc;" horiz-adv-x="1708" 
 />
    <glyph glyph-name="onehalf" unicode="&#xbd;" horiz-adv-x="1964" 
 />
    <glyph glyph-name="threequarters" unicode="&#xbe;" horiz-adv-x="1708" 
 />
    <glyph glyph-name="questiondown" unicode="&#xbf;" horiz-adv-x="748" 
 />
    <glyph glyph-name="Agrave" unicode="&#xc0;" 
d="M561 1435q11 -39 87 -537q2 -1 143 -900l-5 -2q-21 0 -216 -4q-7 18 -44 268l-249 -15q-37 -231 -41 -243q-211 -6 -236 -2v2q195 1103 206 1171q-33 5 -33 11q30 219 35 225h2l349 24q0 2 2 2v0zM390 1125q0 -9 -83 -633h3l186 20v2q-85 500 -102 611h-4v0zM189 1824
q-29 -23 -41.5 -36.5t-12.5 -25.5l255 -254q61 59 95 95l-223 286q-28 -30 -73 -65z" />
    <glyph glyph-name="Aacute" unicode="&#xc1;" 
d="M561 1435q11 -39 87 -537q2 -1 143 -900l-5 -2q-21 0 -216 -4q-7 18 -44 268l-249 -15q-37 -231 -41 -243q-211 -6 -236 -2v2q195 1103 206 1171q-33 5 -33 11q30 219 35 225h2l349 24q0 2 2 2v0zM390 1125q0 -9 -83 -633h3l186 20v2q-85 500 -102 611h-4v0zM295 1603
q34 -36 95 -95l255 254q0 12 -12.5 25.5t-41.5 36.5q-45 35 -73 65z" />
    <glyph glyph-name="Acircumflex" unicode="&#xc2;" 
d="M561 1435q11 -39 87 -537q2 -1 143 -900l-5 -2q-21 0 -216 -4q-7 18 -44 268l-249 -15q-37 -231 -41 -243q-211 -6 -236 -2v2q195 1103 206 1171q-33 5 -33 11q30 219 35 225h2l349 24q0 2 2 2v0zM390 1125q0 -9 -83 -633h3l186 20v2q-85 500 -102 611h-4v0zM283 1522
l86 170q2 -1 90 -163l93 37q-83 164 -114 229l-34 67h-71q-80 -166 -147 -296q3 0 97 -44z" />
    <glyph glyph-name="Atilde" unicode="&#xc3;" 
d="M561 1435q11 -39 87 -537q2 -1 143 -900l-5 -2q-21 0 -216 -4q-7 18 -44 268l-249 -15q-37 -231 -41 -243q-211 -6 -236 -2v2q195 1103 206 1171q-33 5 -33 11q30 219 35 225h2l349 24q0 2 2 2v0zM390 1125q0 -9 -83 -633h3l186 20v2q-85 500 -102 611h-4v0zM674 1753
q-20 -103 -68.5 -154t-126.5 -51h-4q-50 0 -113 23q-66 24 -114 24q-39 0 -60.5 -20.5t-33.5 -71.5h-54q19 106 68 158.5t129 52.5q46 0 113 -24q64 -23 112 -23h4q36 0 58 20t36 66h54v0z" />
    <glyph glyph-name="Adieresis" unicode="&#xc4;" 
d="M561 1435q11 -39 87 -537q2 -1 143 -900l-5 -2q-21 0 -216 -4q-7 18 -44 268l-249 -15q-37 -231 -41 -243q-211 -6 -236 -2v2q195 1103 206 1171q-33 5 -33 11q30 219 35 225h2l349 24q0 2 2 2v0zM390 1125q0 -9 -83 -633h3l186 20v2q-85 500 -102 611h-4v0zM156 1588
q33 -50 85 -50h4q21 0 44 10q56 35 56 88v6q0 26 -15 51q-36 47 -80 47h-10q-25 0 -56 -18q-42 -36 -42 -78v-10q0 -23 14 -46zM451 1594q31 -56 90 -56h4q17 0 44 10q55 37 55 90q0 25 -15 52q-33 50 -82 50h-11q-16 0 -37 -9q-59 -32 -59 -91v-4q0 -20 11 -42z" />
    <glyph glyph-name="Aring" unicode="&#xc5;" 
d="M561 1435q11 -39 87 -537q2 -1 143 -900l-5 -2q-21 0 -216 -4q-7 18 -44 268l-249 -15q-37 -231 -41 -243q-211 -6 -236 -2v2q195 1103 206 1171q-33 5 -33 11q30 219 35 225h2l349 24q0 2 2 2v0zM390 1125q0 -9 -83 -633h3l186 20v2q-85 500 -102 611h-4v0zM508 1646v-6
q0 -97 -65 -118q-22 -8 -52 -8q-78 0 -104 54q-14 28 -14 71v4q0 91 66 112q22 7 52 7q80 0 104 -50q13 -25 13 -66zM430 1669q-9 22 -39 22q-11 0 -19 -4q-26 -8 -26 -47v-1q0 -15 6 -31q9 -22 39 -22q12 0 19 3q25 7 25 53q0 18 -5 27z" />
    <glyph glyph-name="AE" unicode="&#xc6;" horiz-adv-x="2118" 
 />
    <glyph glyph-name="Ccedilla" unicode="&#xc7;" horiz-adv-x="1399" 
 />
    <glyph glyph-name="Egrave" unicode="&#xc8;" horiz-adv-x="683" 
d="M631 1435l2 -4v-232q0 -4 -4 -4q-38 0 -349 -13v-449h119q43 0 130 2l2 -4v-215q0 -7 -223 -24q0 -2 -28 -4v-238h349q4 -1 4 -5v-214q0 -8 -232 -13q0 -3 -377 -15q-4 -3 -7 -3q0 3 -2 3q0 3 2 26q0 42 22 1144q-37 5 -37 11q-2 168 -2 221q2 0 2 2q585 26 618 26l11 2
v0zM189 1824q-29 -23 -41.5 -36.5t-12.5 -25.5l255 -254q61 59 95 95l-223 286q-28 -30 -73 -65z" />
    <glyph glyph-name="Eacute" unicode="&#xc9;" horiz-adv-x="683" 
d="M631 1435l2 -4v-232q0 -4 -4 -4q-38 0 -349 -13v-449h119q43 0 130 2l2 -4v-215q0 -7 -223 -24q0 -2 -28 -4v-238h349q4 -1 4 -5v-214q0 -8 -232 -13q0 -3 -377 -15q-4 -3 -7 -3q0 3 -2 3q0 3 2 26q0 42 22 1144q-37 5 -37 11q-2 168 -2 221q2 0 2 2q585 26 618 26l11 2
v0zM135 1603q34 -36 95 -95l255 254q0 12 -12.5 25.5t-41.5 36.5q-45 35 -73 65z" />
    <glyph glyph-name="Ecircumflex" unicode="&#xca;" horiz-adv-x="683" 
d="M631 1435l2 -4v-232q0 -4 -4 -4q-38 0 -349 -13v-449h119q43 0 130 2l2 -4v-215q0 -7 -223 -24q0 -2 -28 -4v-238h349q4 -1 4 -5v-214q0 -8 -232 -13q0 -3 -377 -15q-4 -3 -7 -3q0 3 -2 3q0 3 2 26q0 42 22 1144q-37 5 -37 11q-2 168 -2 221q2 0 2 2q585 26 618 26l11 2
v0zM242 1523l86 170q2 -1 90 -163l93 37q-83 164 -114 229l-34 67h-71q-80 -166 -147 -296q3 0 97 -44z" />
    <glyph glyph-name="Edieresis" unicode="&#xcb;" horiz-adv-x="683" 
d="M631 1435l2 -4v-232q0 -4 -4 -4q-38 0 -349 -13v-449h119q43 0 130 2l2 -4v-215q0 -7 -223 -24q0 -2 -28 -4v-238h349q4 -1 4 -5v-214q0 -8 -232 -13q0 -3 -377 -15q-4 -3 -7 -3q0 3 -2 3q0 3 2 26q0 42 22 1144q-37 5 -37 11q-2 168 -2 221q2 0 2 2q585 26 618 26l11 2
v0zM76 1568q33 -50 85 -50h4q21 0 44 10q56 35 56 88v6q0 26 -15 51q-36 47 -80 47h-10q-25 0 -56 -18q-42 -36 -42 -78v-10q0 -23 14 -46zM371 1574q31 -56 90 -56h4q17 0 44 10q55 37 55 90q0 25 -15 52q-33 50 -82 50h-11q-16 0 -37 -9q-59 -32 -59 -91v-4q0 -20 11 -42z
" />
    <glyph glyph-name="Igrave" unicode="&#xcc;" horiz-adv-x="389" 
d="M282 1433l2 -4v-1403q0 -4 -4 -4h-234q-5 0 -5 4v1145q-2 3 -26 11l-15 223q5 4 282 28v0zM-73 1849q-29 -23 -41.5 -36.5t-12.5 -25.5l255 -254q61 59 95 95l-223 286q-28 -30 -73 -65z" />
    <glyph glyph-name="Iacute" unicode="&#xcd;" horiz-adv-x="389" 
d="M282 1433l2 -4v-1403q0 -4 -4 -4h-234q-5 0 -5 4v1145q-2 3 -26 11l-15 223q5 4 282 28v0zM33 1628q34 -36 95 -95l255 254q0 12 -12.5 25.5t-41.5 36.5q-45 35 -73 65z" />
    <glyph glyph-name="Icircumflex" unicode="&#xce;" horiz-adv-x="389" 
d="M282 1433l2 -4v-1403q0 -4 -4 -4h-234q-5 0 -5 4v1145q-2 3 -26 11l-15 223q5 4 282 28v0zM64 1525l86 170q2 -1 90 -163l93 37q-83 164 -114 229l-34 67h-71q-80 -166 -147 -296q3 0 97 -44z" />
    <glyph glyph-name="Idieresis" unicode="&#xcf;" horiz-adv-x="389" 
d="M282 1433l2 -4v-1403q0 -4 -4 -4h-234q-5 0 -5 4v1145q-2 3 -26 11l-15 223q5 4 282 28v0zM-86 1588q33 -50 85 -50h4q21 0 44 10q56 35 56 88v6q0 26 -15 51q-36 47 -80 47h-10q-25 0 -56 -18q-42 -36 -42 -78v-10q0 -23 14 -46zM209 1594q31 -56 90 -56h4q17 0 44 10
q55 37 55 90q0 25 -15 52q-33 50 -82 50h-11q-16 0 -37 -9q-59 -32 -59 -91v-4q0 -20 11 -42z" />
    <glyph glyph-name="Eth" unicode="&#xd0;" horiz-adv-x="1518" 
 />
    <glyph glyph-name="Ntilde" unicode="&#xd1;" horiz-adv-x="908" 
d="M785 1419l2 -5q-35 -1369 -39 -1369q-246 -24 -262 -24q-224 886 -224 895h-2v-2q41 -823 44 -902q-3 0 -3 -2q-139 -2 -205 -2h-48q-7 0 -7 41q0 174 -10 1123q-24 4 -31 8l11 223q2 0 2 3q278 -13 278 -20l249 -841h2v2l-11 856q13 5 254 16v0zM674 1753
q-20 -103 -68.5 -154t-126.5 -51h-4q-50 0 -113 23q-66 24 -114 24q-39 0 -60.5 -20.5t-33.5 -71.5h-54q19 106 68 158.5t129 52.5q46 0 113 -24q64 -23 112 -23h4q36 0 58 20t36 66h54v0z" />
    <glyph glyph-name="Ograve" unicode="&#xd2;" horiz-adv-x="796" 
d="M381 1432q258 0 352 -452q24 -127 24 -270q0 -366 -152 -594q-95 -124 -229 -124q-258 0 -354 462q-22 132 -22 260q0 383 161 608q91 110 220 110v0zM273 679v-4q0 -362 88 -445l15 -4h5q41 0 75 129q28 132 28 322q0 331 -66 484q-20 29 -35 29h-9q-68 0 -97 -361
q-4 -63 -4 -150v0zM179 1817q-29 -23 -41.5 -36.5t-12.5 -25.5l255 -254q61 59 95 95l-223 286q-28 -30 -73 -65z" />
    <glyph glyph-name="Oacute" unicode="&#xd3;" horiz-adv-x="796" 
d="M381 1432q258 0 352 -452q24 -127 24 -270q0 -366 -152 -594q-95 -124 -229 -124q-258 0 -354 462q-22 132 -22 260q0 383 161 608q91 110 220 110v0zM273 679v-4q0 -362 88 -445l15 -4h5q41 0 75 129q28 132 28 322q0 331 -66 484q-20 29 -35 29h-9q-68 0 -97 -361
q-4 -63 -4 -150v0zM286 1599q34 -36 95 -95l255 254q0 12 -12.5 25.5t-41.5 36.5q-45 35 -73 65z" />
    <glyph glyph-name="Ocircumflex" unicode="&#xd4;" horiz-adv-x="796" 
d="M381 1432q258 0 352 -452q24 -127 24 -270q0 -366 -152 -594q-95 -124 -229 -124q-258 0 -354 462q-22 132 -22 260q0 383 161 608q91 110 220 110v0zM273 679v-4q0 -362 88 -445l15 -4h5q41 0 75 129q28 132 28 322q0 331 -66 484q-20 29 -35 29h-9q-68 0 -97 -361
q-4 -63 -4 -150v0zM292 1515l86 170q2 -1 90 -163l93 37q-83 164 -114 229l-34 67h-71q-80 -166 -147 -296q3 0 97 -44z" />
    <glyph glyph-name="Otilde" unicode="&#xd5;" horiz-adv-x="796" 
d="M381 1432q258 0 352 -452q24 -127 24 -270q0 -366 -152 -594q-95 -124 -229 -124q-258 0 -354 462q-22 132 -22 260q0 383 161 608q91 110 220 110v0zM273 679v-4q0 -362 88 -445l15 -4h5q41 0 75 129q28 132 28 322q0 331 -66 484q-20 29 -35 29h-9q-68 0 -97 -361
q-4 -63 -4 -150v0zM674 1753q-20 -103 -68.5 -154t-126.5 -51h-4q-50 0 -113 23q-66 24 -114 24q-39 0 -60.5 -20.5t-33.5 -71.5h-54q19 106 68 158.5t129 52.5q46 0 113 -24q64 -23 112 -23h4q36 0 58 20t36 66h54v0z" />
    <glyph glyph-name="Odieresis" unicode="&#xd6;" horiz-adv-x="796" 
d="M381 1432q258 0 352 -452q24 -127 24 -270q0 -366 -152 -594q-95 -124 -229 -124q-258 0 -354 462q-22 132 -22 260q0 383 161 608q91 110 220 110v0zM273 679v-4q0 -362 88 -445l15 -4h5q41 0 75 129q28 132 28 322q0 331 -66 484q-20 29 -35 29h-9q-68 0 -97 -361
q-4 -63 -4 -150v0zM139 1588q33 -50 85 -50h4q21 0 44 10q56 35 56 88v6q0 26 -15 51q-36 47 -80 47h-10q-25 0 -56 -18q-42 -36 -42 -78v-10q0 -23 14 -46zM434 1594q31 -56 90 -56h4q17 0 44 10q55 37 55 90q0 25 -15 52q-33 50 -82 50h-11q-16 0 -37 -9q-59 -32 -59 -91
v-4q0 -20 11 -42z" />
    <glyph glyph-name="multiply" unicode="&#xd7;" horiz-adv-x="944" 
d="M894 939v-2l-5 -3l-297 -276h1q6 -8 272 -296v-2l-122 -122h-3q-286 275 -296 284l-5 -3l-295 -274l-5 -2q-30 30 -122 123q1 0 0 1l281 295l-298 284l1 2q134 134 168 167q1 -1 2 0l275 -299l279 292q1 -1 1 0q23 -22 29 -28q31 -32 139 -141v0z" />
    <glyph glyph-name="Oslash" unicode="&#xd8;" horiz-adv-x="1614" 
 />
    <glyph glyph-name="Ugrave" unicode="&#xd9;" horiz-adv-x="794" 
d="M464 1434h225q5 0 5 -7q0 -38 26 -574v-139q0 -706 -351 -706q-252 0 -317 366q-24 134 -24 325v11q0 64 11 464h-2q-24 0 -24 15q-13 185 -13 216l4 3q260 4 297 6l3 -4q-33 -563 -33 -720q0 -435 98 -435q110 0 110 546q-4 244 -19 630l4 3v0zM179 1817
q-29 -23 -41.5 -36.5t-12.5 -25.5l255 -254q61 59 95 95l-223 286q-28 -30 -73 -65z" />
    <glyph glyph-name="Uacute" unicode="&#xda;" horiz-adv-x="794" 
d="M464 1434h225q5 0 5 -7q0 -38 26 -574v-139q0 -706 -351 -706q-252 0 -317 366q-24 134 -24 325v11q0 64 11 464h-2q-24 0 -24 15q-13 185 -13 216l4 3q260 4 297 6l3 -4q-33 -563 -33 -720q0 -435 98 -435q110 0 110 546q-4 244 -19 630l4 3v0zM283 1596q34 -36 95 -95
l255 254q0 12 -12.5 25.5t-41.5 36.5q-45 35 -73 65z" />
    <glyph glyph-name="Ucircumflex" unicode="&#xdb;" horiz-adv-x="794" 
d="M464 1434h225q5 0 5 -7q0 -38 26 -574v-139q0 -706 -351 -706q-252 0 -317 366q-24 134 -24 325v11q0 64 11 464h-2q-24 0 -24 15q-13 185 -13 216l4 3q260 4 297 6l3 -4q-33 -563 -33 -720q0 -435 98 -435q110 0 110 546q-4 244 -19 630l4 3v0zM285 1515l86 170
q2 -1 90 -163l93 37q-83 164 -114 229l-34 67h-71q-80 -166 -147 -296q3 0 97 -44z" />
    <glyph glyph-name="Udieresis" unicode="&#xdc;" horiz-adv-x="794" 
d="M464 1434h225q5 0 5 -7q0 -38 26 -574v-139q0 -706 -351 -706q-252 0 -317 366q-24 134 -24 325v11q0 64 11 464h-2q-24 0 -24 15q-13 185 -13 216l4 3q260 4 297 6l3 -4q-33 -563 -33 -720q0 -435 98 -435q110 0 110 546q-4 244 -19 630l4 3v0zM126 1588q33 -50 85 -50
h4q21 0 44 10q56 35 56 88v6q0 26 -15 51q-36 47 -80 47h-10q-25 0 -56 -18q-42 -36 -42 -78v-10q0 -23 14 -46zM421 1594q31 -56 90 -56h4q17 0 44 10q55 37 55 90q0 25 -15 52q-33 50 -82 50h-11q-16 0 -37 -9q-59 -32 -59 -91v-4q0 -20 11 -42z" />
    <glyph glyph-name="Yacute" unicode="&#xdd;" horiz-adv-x="843" 
d="M789 1434q4 -1 4 -5l-271 -945l19 -455q0 -4 -262 -15l-2 4q-2 243 -2 371v39q0 14 -208 746q-23 0 -26 34q-7 40 -41 197l4 3q221 4 241 4q4 -6 151 -691h2q133 700 139 713h252v0zM283 1596q34 -36 95 -95l255 254q0 12 -12.5 25.5t-41.5 36.5q-45 35 -73 65z" />
    <glyph glyph-name="Thorn" unicode="&#xde;" horiz-adv-x="1120" 
 />
    <glyph glyph-name="germandbls" unicode="&#xdf;" horiz-adv-x="1251" 
 />
    <glyph glyph-name="agrave" unicode="&#xe0;" horiz-adv-x="746" 
d="M364 1119q332 0 334 -373l-2 -259q0 -115 -20 -501q-2 0 -2 -2q-197 15 -197 22q7 89 7 138v5h-3q-22 -72 -89 -115q-57 -33 -136 -33q-193 0 -247 200q-9 41 -9 84q0 278 304 377q99 29 173 29v19q0 175 -65 222q-16 13 -34 13q-96 0 -124 -135q-2 -33 -2 -61v-4
q0 -4 -9 -7q-124 -2 -171 -2q-41 0 -41 11q0 274 201 350q58 22 132 22v0zM230 331v-7q0 -77 78 -108q8 -4 24 -4h6q79 0 119 125q14 48 34 117v46q0 11 -3 37q-109 -18 -171 -68q-87 -65 -87 -138v0zM279 1534q-29 -23 -41.5 -36.5t-12.5 -25.5l255 -254q61 59 95 95
l-223 286q-28 -30 -73 -65z" />
    <glyph glyph-name="aacute" unicode="&#xe1;" horiz-adv-x="746" 
d="M364 1119q332 0 334 -373l-2 -259q0 -115 -20 -501q-2 0 -2 -2q-197 15 -197 22q7 89 7 138v5h-3q-22 -72 -89 -115q-57 -33 -136 -33q-193 0 -247 200q-9 41 -9 84q0 278 304 377q99 29 173 29v19q0 175 -65 222q-16 13 -34 13q-96 0 -124 -135q-2 -33 -2 -61v-4
q0 -4 -9 -7q-124 -2 -171 -2q-41 0 -41 11q0 274 201 350q58 22 132 22v0zM230 331v-7q0 -77 78 -108q8 -4 24 -4h6q79 0 119 125q14 48 34 117v46q0 11 -3 37q-109 -18 -171 -68q-87 -65 -87 -138v0zM225 1313q34 -36 95 -95l255 254q0 12 -12.5 25.5t-41.5 36.5
q-45 35 -73 65z" />
    <glyph glyph-name="acircumflex" unicode="&#xe2;" horiz-adv-x="746" 
d="M364 1119q332 0 334 -373l-2 -259q0 -115 -20 -501q-2 0 -2 -2q-197 15 -197 22q7 89 7 138v5h-3q-22 -72 -89 -115q-57 -33 -136 -33q-193 0 -247 200q-9 41 -9 84q0 278 304 377q99 29 173 29v19q0 175 -65 222q-16 13 -34 13q-96 0 -124 -135q-2 -33 -2 -61v-4
q0 -4 -9 -7q-124 -2 -171 -2q-41 0 -41 11q0 274 201 350q58 22 132 22v0zM230 331v-7q0 -77 78 -108q8 -4 24 -4h6q79 0 119 125q14 48 34 117v46q0 11 -3 37q-109 -18 -171 -68q-87 -65 -87 -138v0zM273 1202l86 170q2 -1 90 -163l93 37q-83 164 -114 229l-34 67h-71
q-80 -166 -147 -296q3 0 97 -44z" />
    <glyph glyph-name="atilde" unicode="&#xe3;" horiz-adv-x="746" 
d="M364 1119q332 0 334 -373l-2 -259q0 -115 -20 -501q-2 0 -2 -2q-197 15 -197 22q7 89 7 138v5h-3q-22 -72 -89 -115q-57 -33 -136 -33q-193 0 -247 200q-9 41 -9 84q0 278 304 377q99 29 173 29v19q0 175 -65 222q-16 13 -34 13q-96 0 -124 -135q-2 -33 -2 -61v-4
q0 -4 -9 -7q-124 -2 -171 -2q-41 0 -41 11q0 274 201 350q58 22 132 22v0zM230 331v-7q0 -77 78 -108q8 -4 24 -4h6q79 0 119 125q14 48 34 117v46q0 11 -3 37q-109 -18 -171 -68q-87 -65 -87 -138v0zM644 1433q-20 -103 -68.5 -154t-126.5 -51h-4q-50 0 -113 23
q-66 24 -114 24q-39 0 -60.5 -20.5t-33.5 -71.5h-54q19 106 68 158.5t129 52.5q46 0 113 -24q64 -23 112 -23h4q36 0 58 20t36 66h54v0z" />
    <glyph glyph-name="adieresis" unicode="&#xe4;" horiz-adv-x="746" 
d="M364 1119q332 0 334 -373l-2 -259q0 -115 -20 -501q-2 0 -2 -2q-197 15 -197 22q7 89 7 138v5h-3q-22 -72 -89 -115q-57 -33 -136 -33q-193 0 -247 200q-9 41 -9 84q0 278 304 377q99 29 173 29v19q0 175 -65 222q-16 13 -34 13q-96 0 -124 -135q-2 -33 -2 -61v-4
q0 -4 -9 -7q-124 -2 -171 -2q-41 0 -41 11q0 274 201 350q58 22 132 22v0zM230 331v-7q0 -77 78 -108q8 -4 24 -4h6q79 0 119 125q14 48 34 117v46q0 11 -3 37q-109 -18 -171 -68q-87 -65 -87 -138v0zM126 1288q33 -50 85 -50h4q21 0 44 10q56 35 56 88v6q0 26 -15 51
q-36 47 -80 47h-10q-25 0 -56 -18q-42 -36 -42 -78v-10q0 -23 14 -46zM421 1294q31 -56 90 -56h4q17 0 44 10q55 37 55 90q0 25 -15 52q-33 50 -82 50h-11q-16 0 -37 -9q-59 -32 -59 -91v-4q0 -20 11 -42z" />
    <glyph glyph-name="aring" unicode="&#xe5;" horiz-adv-x="746" 
d="M364 1119q332 0 334 -373l-2 -259q0 -115 -20 -501q-2 0 -2 -2q-197 15 -197 22q7 89 7 138v5h-3q-22 -72 -89 -115q-57 -33 -136 -33q-193 0 -247 200q-9 41 -9 84q0 278 304 377q99 29 173 29v19q0 175 -65 222q-16 13 -34 13q-96 0 -124 -135q-2 -33 -2 -61v-4
q0 -4 -9 -7q-124 -2 -171 -2q-41 0 -41 11q0 274 201 350q58 22 132 22v0zM230 331v-7q0 -77 78 -108q8 -4 24 -4h6q79 0 119 125q14 48 34 117v46q0 11 -3 37q-109 -18 -171 -68q-87 -65 -87 -138v0zM478 1356v-6q0 -97 -65 -118q-22 -8 -52 -8q-78 0 -104 54
q-14 28 -14 71v4q0 91 66 112q22 7 52 7q80 0 104 -50q13 -25 13 -66zM400 1379q-9 22 -39 22q-11 0 -19 -4q-26 -8 -26 -47v-1q0 -15 6 -31q9 -22 39 -22q12 0 19 3q25 7 25 53q0 18 -5 27z" />
    <glyph glyph-name="ae" unicode="&#xe6;" horiz-adv-x="1454" 
 />
    <glyph glyph-name="ccedilla" unicode="&#xe7;" horiz-adv-x="905" 
 />
    <glyph glyph-name="egrave" unicode="&#xe8;" horiz-adv-x="750" 
d="M364 1167h17q208 0 282 -199q35 -108 35 -260q-3 -178 -11 -178l-440 -32v-3q15 -182 43 -249q32 -97 72 -97h2q47 0 85 141q10 58 10 104q3 0 3 2q217 -11 236 -11l2 -4q0 -134 -67 -265q-81 -128 -273 -128q-250 0 -325 280q-35 131 -35 316q0 426 221 551
q69 32 143 32v0zM249 686l206 11v2q0 209 -69 299q-17 9 -22 9h-6q-46 0 -85 -156q-13 -47 -24 -165v0zM279 1534q-29 -23 -41.5 -36.5t-12.5 -25.5l255 -254q61 59 95 95l-223 286q-28 -30 -73 -65z" />
    <glyph glyph-name="eacute" unicode="&#xe9;" horiz-adv-x="750" 
d="M364 1167h17q208 0 282 -199q35 -108 35 -260q-3 -178 -11 -178l-440 -32v-3q15 -182 43 -249q32 -97 72 -97h2q47 0 85 141q10 58 10 104q3 0 3 2q217 -11 236 -11l2 -4q0 -134 -67 -265q-81 -128 -273 -128q-250 0 -325 280q-35 131 -35 316q0 426 221 551
q69 32 143 32v0zM249 686l206 11v2q0 209 -69 299q-17 9 -22 9h-6q-46 0 -85 -156q-13 -47 -24 -165v0zM225 1313q34 -36 95 -95l255 254q0 12 -12.5 25.5t-41.5 36.5q-45 35 -73 65z" />
    <glyph glyph-name="ecircumflex" unicode="&#xea;" horiz-adv-x="750" 
d="M364 1167h17q208 0 282 -199q35 -108 35 -260q-3 -178 -11 -178l-440 -32v-3q15 -182 43 -249q32 -97 72 -97h2q47 0 85 141q10 58 10 104q3 0 3 2q217 -11 236 -11l2 -4q0 -134 -67 -265q-81 -128 -273 -128q-250 0 -325 280q-35 131 -35 316q0 426 221 551
q69 32 143 32v0zM249 686l206 11v2q0 209 -69 299q-17 9 -22 9h-6q-46 0 -85 -156q-13 -47 -24 -165v0zM273 1202l86 170q2 -1 90 -163l93 37q-83 164 -114 229l-34 67h-71q-80 -166 -147 -296q3 0 97 -44z" />
    <glyph glyph-name="edieresis" unicode="&#xeb;" horiz-adv-x="750" 
d="M364 1167h17q208 0 282 -199q35 -108 35 -260q-3 -178 -11 -178l-440 -32v-3q15 -182 43 -249q32 -97 72 -97h2q47 0 85 141q10 58 10 104q3 0 3 2q217 -11 236 -11l2 -4q0 -134 -67 -265q-81 -128 -273 -128q-250 0 -325 280q-35 131 -35 316q0 426 221 551
q69 32 143 32v0zM249 686l206 11v2q0 209 -69 299q-17 9 -22 9h-6q-46 0 -85 -156q-13 -47 -24 -165v0zM126 1288q33 -50 85 -50h4q21 0 44 10q56 35 56 88v6q0 26 -15 51q-36 47 -80 47h-10q-25 0 -56 -18q-42 -36 -42 -78v-10q0 -23 14 -46zM421 1294q31 -56 90 -56h4
q17 0 44 10q55 37 55 90q0 25 -15 52q-33 50 -82 50h-11q-16 0 -37 -9q-59 -32 -59 -91v-4q0 -20 11 -42z" />
    <glyph glyph-name="igrave" unicode="&#xec;" horiz-adv-x="328" 
d="M256 1086l2 -5q0 -163 -13 -1077l-5 -3q-158 -2 -206 -2q-4 17 -4 41l-11 1007l-2 34l4 3h219l16 2v0zM-5 1525q-29 -23 -41.5 -36.5t-12.5 -25.5l255 -254q61 59 95 95l-223 286q-28 -30 -73 -65z" />
    <glyph glyph-name="iacute" unicode="&#xed;" horiz-adv-x="328" 
d="M256 1086l2 -5q0 -163 -13 -1077l-5 -3q-158 -2 -206 -2q-4 17 -4 41l-11 1007l-2 34l4 3h219l16 2v0zM12 1304q34 -36 95 -95l255 254q0 12 -12.5 25.5t-41.5 36.5q-45 35 -73 65z" />
    <glyph glyph-name="icircumflex" unicode="&#xee;" horiz-adv-x="328" 
d="M256 1086l2 -5q0 -163 -13 -1077l-5 -3q-158 -2 -206 -2q-4 17 -4 41l-11 1007l-2 34l4 3h219l16 2v0zM51 1202l86 170q2 -1 90 -163l93 37q-83 164 -114 229l-34 67h-71q-80 -166 -147 -296q3 0 97 -44z" />
    <glyph glyph-name="idieresis" unicode="&#xef;" horiz-adv-x="328" 
d="M256 1086l2 -5q0 -163 -13 -1077l-5 -3q-158 -2 -206 -2q-4 17 -4 41l-11 1007l-2 34l4 3h219l16 2v0zM-95 1288q33 -50 85 -50h4q21 0 44 10q56 35 56 88v6q0 26 -15 51q-36 47 -80 47h-10q-25 0 -56 -18q-42 -36 -42 -78v-10q0 -23 14 -46zM200 1294q31 -56 90 -56h4
q17 0 44 10q55 37 55 90q0 25 -15 52q-33 50 -82 50h-11q-16 0 -37 -9q-59 -32 -59 -91v-4q0 -20 11 -42z" />
    <glyph glyph-name="eth" unicode="&#xf0;" horiz-adv-x="1139" 
 />
    <glyph glyph-name="ntilde" unicode="&#xf1;" horiz-adv-x="759" 
d="M446 1167q103 0 178 -115q85 -145 85 -479v-7q0 -99 -20 -546v-19q-2 0 -2 -2q-125 -3 -195 -3h-39l-5 3q31 300 31 548q0 293 -57 375q-16 17 -28 17h-8q-63 0 -107 -145q-39 -157 -39 -420q3 -146 13 -401l-4 -3h-141q-25 0 -80 -2l-2 5l-26 1139q2 0 2 2
q100 -2 152 -2h54l4 -2q-4 -57 -4 -143v-4h2q49 130 152 184q51 20 84 20v0zM644 1473q-20 -103 -68.5 -154t-126.5 -51h-4q-50 0 -113 23q-66 24 -114 24q-39 0 -60.5 -20.5t-33.5 -71.5h-54q19 106 68 158.5t129 52.5q46 0 113 -24q64 -23 112 -23h4q36 0 58 20t36 66h54
v0z" />
    <glyph glyph-name="ograve" unicode="&#xf2;" horiz-adv-x="793" 
d="M352 1164l28 1q191 6 309 -247q59 -154 63 -299l2 -45q8 -262 -125 -455q-98 -114 -216 -118h-28q-195 -6 -313 257q-57 147 -61 291l-2 51q-7 219 96 407q99 152 247 157v0zM245 616l2 -63q8 -237 92 -367q36 -36 56 -35q53 1 93 137q30 144 24 305q-9 283 -98 395
q-24 23 -44 23l-8 -1q-84 -2 -115 -270q-4 -78 -2 -124v0zM164 1558q-29 -23 -41.5 -36.5t-12.5 -25.5l255 -254q61 59 95 95l-223 286q-28 -30 -73 -65z" />
    <glyph glyph-name="oacute" unicode="&#xf3;" horiz-adv-x="793" 
d="M352 1164l28 1q191 6 309 -247q59 -154 63 -299l2 -45q8 -262 -125 -455q-98 -114 -216 -118h-28q-195 -6 -313 257q-57 147 -61 291l-2 51q-7 219 96 407q99 152 247 157v0zM245 616l2 -63q8 -237 92 -367q36 -36 56 -35q53 1 93 137q30 144 24 305q-9 283 -98 395
q-24 23 -44 23l-8 -1q-84 -2 -115 -270q-4 -78 -2 -124v0zM260 1337q34 -36 95 -95l255 254q0 12 -12.5 25.5t-41.5 36.5q-45 35 -73 65z" />
    <glyph glyph-name="ocircumflex" unicode="&#xf4;" horiz-adv-x="793" 
d="M352 1164l28 1q191 6 309 -247q59 -154 63 -299l2 -45q8 -262 -125 -455q-98 -114 -216 -118h-28q-195 -6 -313 257q-57 147 -61 291l-2 51q-7 219 96 407q99 152 247 157v0zM245 616l2 -63q8 -237 92 -367q36 -36 56 -35q53 1 93 137q30 144 24 305q-9 283 -98 395
q-24 23 -44 23l-8 -1q-84 -2 -115 -270q-4 -78 -2 -124v0zM273 1232l86 170q2 -1 90 -163l93 37q-83 164 -114 229l-34 67h-71q-80 -166 -147 -296q3 0 97 -44z" />
    <glyph glyph-name="otilde" unicode="&#xf5;" horiz-adv-x="793" 
d="M352 1164l28 1q191 6 309 -247q59 -154 63 -299l2 -45q8 -262 -125 -455q-98 -114 -216 -118h-28q-195 -6 -313 257q-57 147 -61 291l-2 51q-7 219 96 407q99 152 247 157v0zM245 616l2 -63q8 -237 92 -367q36 -36 56 -35q53 1 93 137q30 144 24 305q-9 283 -98 395
q-24 23 -44 23l-8 -1q-84 -2 -115 -270q-4 -78 -2 -124v0zM644 1463q-20 -103 -68.5 -154t-126.5 -51h-4q-50 0 -113 23q-66 24 -114 24q-39 0 -60.5 -20.5t-33.5 -71.5h-54q19 106 68 158.5t129 52.5q46 0 113 -24q64 -23 112 -23h4q36 0 58 20t36 66h54v0z" />
    <glyph glyph-name="odieresis" unicode="&#xf6;" horiz-adv-x="793" 
d="M352 1164l28 1q191 6 309 -247q59 -154 63 -299l2 -45q8 -262 -125 -455q-98 -114 -216 -118h-28q-195 -6 -313 257q-57 147 -61 291l-2 51q-7 219 96 407q99 152 247 157v0zM245 616l2 -63q8 -237 92 -367q36 -36 56 -35q53 1 93 137q30 144 24 305q-9 283 -98 395
q-24 23 -44 23l-8 -1q-84 -2 -115 -270q-4 -78 -2 -124v0zM126 1298q33 -50 85 -50h4q21 0 44 10q56 35 56 88v6q0 26 -15 51q-36 47 -80 47h-10q-25 0 -56 -18q-42 -36 -42 -78v-10q0 -23 14 -46zM421 1304q31 -56 90 -56h4q17 0 44 10q55 37 55 90q0 25 -15 52
q-33 50 -82 50h-11q-16 0 -37 -9q-59 -32 -59 -91v-4q0 -20 11 -42z" />
    <glyph glyph-name="divide" unicode="&#xf7;" horiz-adv-x="890" 
d="M311 408l82 84q15 14 29 14q13 0 31 -16l80 -86q12 -16 12 -29q0 -15 -14 -31l-80 -88q-20 -20 -29 -20q-16 0 -29 14l-88 101q-10 13 -10 26q0 15 16 31v0zM311 1101l82 84q15 14 29 14q13 0 31 -16l80 -86q12 -16 12 -29q0 -15 -14 -31l-80 -88q-20 -20 -29 -20
q-16 0 -29 14l-88 101q-10 13 -10 26q0 15 16 31v0zM0 647v140h839l1 -1v-139h-840z" />
    <glyph glyph-name="oslash" unicode="&#xf8;" horiz-adv-x="1010" 
 />
    <glyph glyph-name="ugrave" unicode="&#xf9;" horiz-adv-x="717" 
d="M8 1109q137 -17 212 -27q0 -1 4 -7q5 -92 5 -359q6 -466 113 -490h6q89 0 107 388q4 99 4 180q0 159 -11 394q2 0 2 2q86 -4 180 -4q27 2 31 2l2 -4v-18q0 -593 4 -1105q-50 -15 -184 -47q0 2 -2 2q2 37 4 165v2h-2q-33 -94 -132 -152q-63 -26 -102 -26q-174 0 -221 249
q-28 136 -28 369q0 313 6 486h2v0zM131 1569q-29 -23 -41.5 -36.5t-12.5 -25.5l255 -254q61 59 95 95l-223 286q-28 -30 -73 -65z" />
    <glyph glyph-name="uacute" unicode="&#xfa;" horiz-adv-x="717" 
d="M8 1219q137 -17 212 -27q0 -1 4 -7q5 -92 5 -469q6 -466 113 -490h6q89 0 107 388q4 99 4 180q0 159 -11 394q2 0 2 2q86 -4 180 -4q27 2 31 2l2 -4v-18q0 -593 4 -1105q-50 -15 -184 -47q0 2 -2 2q2 37 4 165v2h-2q-33 -94 -132 -152q-63 -26 -102 -26q-174 0 -221 249
q-28 136 -28 369q0 423 6 596h2v0zM247 1348q34 -36 95 -95l255 254q0 12 -12.5 25.5t-41.5 36.5q-45 35 -73 65z" />
    <glyph glyph-name="ucircumflex" unicode="&#xfb;" horiz-adv-x="717" 
d="M8 1219q137 -17 212 -27q0 -1 4 -7q5 -92 5 -469q6 -466 113 -490h6q89 0 107 388q4 99 4 180q0 159 -11 394q2 0 2 2q86 -4 180 -4q27 2 31 2l2 -4v-18q0 -593 4 -1105q-50 -15 -184 -47q0 2 -2 2q2 37 4 165v2h-2q-33 -94 -132 -152q-63 -26 -102 -26q-174 0 -221 249
q-28 136 -28 369q0 423 6 596h2v0zM246 1275l86 170q2 -1 90 -163l93 37q-83 164 -114 229l-34 67h-71q-80 -166 -147 -296q3 0 97 -44z" />
    <glyph glyph-name="udieresis" unicode="&#xfc;" horiz-adv-x="717" 
d="M8 1218q137 -17 212 -27q0 -1 4 -7q5 -92 5 -468q6 -466 113 -490h6q89 0 107 388q4 99 4 180q0 159 -11 394q2 0 2 2q86 -4 180 -4q27 2 31 2l2 -4v-18q0 -593 4 -1105q-50 -15 -184 -47q0 2 -2 2q2 37 4 165v2h-2q-33 -94 -132 -152q-63 -26 -102 -26q-174 0 -221 249
q-28 136 -28 369q0 422 6 595h2v0zM126 1338q33 -50 85 -50h4q21 0 44 10q56 35 56 88v6q0 26 -15 51q-36 47 -80 47h-10q-25 0 -56 -18q-42 -36 -42 -78v-10q0 -23 14 -46zM421 1344q31 -56 90 -56h4q17 0 44 10q55 37 55 90q0 25 -15 52q-33 50 -82 50h-11q-16 0 -37 -9
q-59 -32 -59 -91v-4q0 -20 11 -42z" />
    <glyph glyph-name="yacute" unicode="&#xfd;" horiz-adv-x="799" 
d="M210 1123q32 -146 158 -745h2q0 11 132 793q47 -2 70 -2h24q52 0 151 -2q0 -2 2 -2l-366 -1634h-2q-236 34 -254 39q0 8 126 448q-234 982 -253 1075q6 2 210 30v0zM247 1288q34 -36 95 -95l255 254q0 12 -12.5 25.5t-41.5 36.5q-45 35 -73 65z" />
    <glyph glyph-name="thorn" unicode="&#xfe;" horiz-adv-x="1010" 
 />
    <glyph glyph-name="ydieresis" unicode="&#xff;" horiz-adv-x="799" 
d="M210 1123q32 -146 158 -745h2q0 11 132 793q47 -2 70 -2h24q52 0 151 -2q0 -2 2 -2l-366 -1634h-2q-236 34 -254 39q0 8 126 448q-234 982 -253 1075q6 2 210 30v0zM126 1318q33 -50 85 -50h4q21 0 44 10q56 35 56 88v6q0 26 -15 51q-36 47 -80 47h-10q-25 0 -56 -18
q-42 -36 -42 -78v-10q0 -23 14 -46zM421 1324q31 -56 90 -56h4q17 0 44 10q55 37 55 90q0 25 -15 52q-33 50 -82 50h-11q-16 0 -37 -9q-59 -32 -59 -91v-4q0 -20 11 -42z" />
    <glyph glyph-name="dotlessi" unicode="&#x131;" horiz-adv-x="505" 
d="M309 223q0 -173 100 -173h46v-50h-442v50h46q100 0 100 173v432q0 77 -111 77h-48v44q222 69 261 182h48v-735v0z" />
    <glyph glyph-name="circumflex" unicode="&#x2c6;" horiz-adv-x="632" 
d="M0 1079l232 355h118l232 -355h-58l-233 216l-233 -216h-58z" />
    <glyph glyph-name="caron" unicode="&#x2c7;" horiz-adv-x="632" 
d="M0 1434h58l233 -214l233 214h58l-232 -356h-118z" />
    <glyph glyph-name="uni02C9" unicode="&#x2c9;" horiz-adv-x="566" 
d="M0 1195v125h516v-125h-516z" />
    <glyph glyph-name="breve" unicode="&#x2d8;" horiz-adv-x="634" 
d="M0 1349h51q17 -73 75 -107t167 -34t166 33.5t74 107.5h51q-20 -133 -94 -201.5t-197 -68.5q-122 0 -197 69t-96 201v0z" />
    <glyph glyph-name="dotaccent" unicode="&#x2d9;" horiz-adv-x="265" 
d="M14 1289l69 72q6 6 13 9t14 3q6 0 12.5 -3t12.5 -9l71 -76q5 -4 7 -10t2 -14q-1 -9 -3 -15t-8 -12l-71 -76q-12 -11 -16 -13.5t-7 -2.5q-10 0 -16.5 2.5t-10.5 8.5l-75 87q-4 4 -6 9.5t-2 13.5q0 6 3 12.5t11 13.5v0z" />
    <glyph glyph-name="ring" unicode="&#x2da;" horiz-adv-x="405" 
d="M76 1257q0 -42 29 -71t71 -29t71 29t29 71q0 40 -29.5 69.5t-70.5 29.5t-70.5 -29.5t-29.5 -69.5v0zM0 1257q0 75 51 126t125 51q76 0 127.5 -51.5t51.5 -125.5q0 -75 -51.5 -126.5t-127.5 -51.5q-74 0 -125 51.5t-51 126.5v0z" />
    <glyph glyph-name="ogonek" unicode="&#x2db;" horiz-adv-x="418" 
d="M271 0q-71 -62 -110.5 -119.5t-39.5 -112.5q0 -47 27 -75t73 -28q40 0 69.5 15.5t49.5 48.5l28 -16q-36 -63 -90.5 -97t-119.5 -34q-70 0 -114 35.5t-44 90.5q0 76 60.5 156.5t161.5 135.5h49v0z" />
    <glyph glyph-name="tilde" unicode="&#x2dc;" horiz-adv-x="624" 
d="M574 1382q-20 -103 -68.5 -154t-126.5 -51h-4q-50 0 -113 23q-66 24 -114 24q-39 0 -60.5 -20.5t-33.5 -71.5h-54q19 106 68 158.5t129 52.5q46 -1 113 -24q64 -23 112 -23h4q36 0 58 20t36 66h54v0z" />
    <glyph glyph-name="hungarumlaut" unicode="&#x2dd;" horiz-adv-x="639" 
d="M0 1079l144 273q24 44 45.5 63t46.5 19q28 0 48 -20t20 -47q0 -16 -10.5 -35t-30.5 -41l-205 -212h-58v0zM285 1079l144 273q24 44 45.5 63t46.5 19q28 0 48 -20t20 -47q0 -16 -10.5 -35t-30.5 -41l-205 -212h-58v0z" />
    <glyph glyph-name="endash" unicode="&#x2013;" horiz-adv-x="1046" 
d="M0 419v120h996v-120h-996z" />
    <glyph glyph-name="emdash" unicode="&#x2014;" horiz-adv-x="2098" 
d="M0 419v120h2048v-120h-2048z" />
    <glyph glyph-name="quoteleft" unicode="&#x2018;" horiz-adv-x="247" 
d="M17 1203l-7 1h-8l-2 1q0 173 74 289h88q11 0 35 -1v-1q-36 -88 -36 -170q0 -44 10 -117q0 -2 -2 -2h-150l-2 1v-1v0z" />
    <glyph glyph-name="quoteright" unicode="&#x2019;" horiz-adv-x="247" 
d="M180 1494l7 -1h8l2 -1q0 -173 -74 -289h-88q-11 0 -35 1v1q36 87 36 170q0 44 -10 117q0 2 2 2h150l2 -1v1v0z" />
    <glyph glyph-name="quotesinglbase" unicode="&#x201a;" horiz-adv-x="247" 
d="M180 147l7 -1h8l2 -1q0 -173 -74 -290h-88q-11 0 -35 1v1q36 88 36 170q0 44 -10 118q0 2 2 2h150l2 -1v1v0z" />
    <glyph glyph-name="quotedblleft" unicode="&#x201c;" horiz-adv-x="480" 
d="M17 1157l-7 1h-8q-2 0 -2 2v8q0 163 73 281h87q12 0 36 -1q0 -1 1 -1q-37 -85 -37 -160v-22q0 -42 10 -107l-2 -1h-149l-2 1v-1v0zM266 1157q-11 0 -32 1l-1 2q0 123 33 206q30 71 41 83h84q12 0 38 -1q0 -1 1 -1q-36 -86 -36 -162v-16q0 -44 10 -111l-2 -1h-136v0z" />
    <glyph glyph-name="quotedblright" unicode="&#x201d;" horiz-adv-x="480" 
d="M413 1449l7 -1h8q1 0 2 -2v-8q0 -163 -74 -281h-87q-12 0 -35 1q0 1 -1 1q36 85 36 160v22q0 42 -10 107l2 1h150l2 -1v1v0zM163 1449q11 0 33 -1l1 -2q0 -123 -34 -206q-30 -72 -41 -83h-84q-12 0 -37 1q0 1 -1 1q36 86 36 162v16q0 44 -10 111l2 1h135v0z" />
    <glyph glyph-name="quotedblbase" unicode="&#x201e;" horiz-adv-x="480" 
d="M413 101l7 -1h8q1 0 2 -2v-8q0 -162 -74 -280h-87q-12 0 -35 1q0 1 -1 1q36 84 36 160v22q0 42 -10 106l2 1h150l2 -1v1v0zM163 101q11 0 33 -1l1 -2q0 -122 -34 -206q-30 -71 -41 -82h-84q-12 0 -37 1q0 1 -1 1q36 85 36 162v16q0 43 -10 110l2 1h135v0z" />
    <glyph glyph-name="dagger" unicode="&#x2020;" horiz-adv-x="923" 
d="M415 1022q-8 97 -54 178q-57 101 -57 129q0 49 36 78.5t96 29.5q57 0 94.5 -27.5t37.5 -71.5q0 -32 -55 -137q-46 -85 -55 -179q96 8 177 54q101 57 129 57q49 0 79 -36t30 -96q0 -57 -27.5 -94.5t-72.5 -37.5q-32 0 -136 55q-85 46 -179 57q8 -176 110 -277
q-106 -460 -112 -974h-38q-6 514 -114 974q102 101 111 277q-96 -10 -178 -55q-101 -57 -129 -57q-49 0 -78.5 36t-29.5 96q0 57 27.5 94.5t71.5 37.5q32 0 137 -56q85 -46 179 -55v0z" />
    <glyph glyph-name="daggerdbl" unicode="&#x2021;" horiz-adv-x="923" 
d="M458 186q94 11 179 57q104 55 136 55q45 0 72.5 -37.5t27.5 -94.5q0 -60 -30 -96t-79 -36q-28 0 -129 57q-81 46 -177 54q9 -94 55 -179q55 -105 55 -137q0 -44 -37.5 -71.5t-94.5 -27.5q-60 0 -96 29.5t-36 78.5q0 28 57 129q46 81 54 178q-94 -9 -179 -55
q-105 -56 -137 -56q-44 0 -71.5 37.5t-27.5 94.5q0 60 29.5 96t78.5 36q28 0 129 -57q82 -45 178 -55q-9 226 -111 398q102 171 111 397q-96 -10 -178 -55q-101 -57 -129 -57q-49 0 -78.5 36t-29.5 96q0 57 27.5 94.5t71.5 37.5q32 0 137 -56q85 -46 179 -55q-8 97 -54 178
q-57 101 -57 129q0 49 36 78.5t96 29.5q57 0 94.5 -27.5t37.5 -71.5q0 -32 -55 -137q-46 -85 -55 -179q96 8 177 54q101 57 129 57q49 0 79 -36t30 -96q0 -57 -27.5 -94.5t-72.5 -37.5q-32 0 -136 55q-85 46 -179 57q8 -226 110 -397q-102 -172 -110 -398v0z" />
    <glyph glyph-name="bullet" unicode="&#x2022;" horiz-adv-x="642" 
d="M0 718q0 123 87 209t210 86q122 0 208.5 -86.5t86.5 -208.5t-87.5 -209.5t-209.5 -87.5q-123 0 -209 87t-86 210v0z" />
    <glyph glyph-name="ellipsis" unicode="&#x2026;" horiz-adv-x="1666" 
d="M16 167l82 84q15 14 29 14q13 0 31 -16l80 -86q12 -16 12 -29q0 -15 -14 -31l-80 -88q-20 -20 -29 -20q-16 0 -29 14l-88 101q-10 13 -10 26q0 15 16 31v0zM699 167l82 84q15 14 29 14q13 0 31 -16l80 -86q12 -16 12 -29q0 -15 -14 -31l-80 -88q-20 -20 -29 -20
q-16 0 -29 14l-88 101q-10 13 -10 26q0 15 16 31v0zM1382 167l82 84q15 14 29 14q13 0 31 -16l80 -86q12 -16 12 -29q0 -15 -14 -31l-80 -88q-20 -20 -29 -20q-16 0 -29 14l-88 101q-10 13 -10 26q0 15 16 31v0z" />
    <glyph glyph-name="guilsinglleft" unicode="&#x2039;" horiz-adv-x="406" 
d="M0 479l342 303h14v-37l-205 -266l205 -266v-37h-14z" />
    <glyph glyph-name="guilsinglright" unicode="&#x203a;" horiz-adv-x="406" 
d="M14 176h-14v37l205 266l-205 266v37h14l342 -303z" />
    <glyph glyph-name="fraction" unicode="&#x2044;" horiz-adv-x="1074" 
d="M0 -29l940 1461h84l-938 -1461h-86z" />
    <glyph glyph-name="fraction" unicode="&#x2215;" horiz-adv-x="1074" 
d="M0 -29l940 1461h84l-938 -1461h-86z" />
    <glyph glyph-name="franc" unicode="&#x20a3;" horiz-adv-x="1068" 
d="M199 357h-194v60h194v732q0 235 -103 235h-96v50h915l103 -231h-49q-59 182 -190 182l-316 -1q-102 0 -102 -235v-352h361q100 0 100 63v58h50v-342h-50v60q0 62 -100 62h-361v-281h194v-60h-194v-72q0 -235 102 -235h97v-50h-560v50h96q103 0 103 235v72v0z" />
    <glyph glyph-name="lira" unicode="&#x20a4;" horiz-adv-x="910" 
d="M672 1347q-72 31 -160 31h-2q-100 0 -190 -101q-84 -93 -84 -241q0 -15 1 -30q0 -106 33 -213h380v-60h-360q12 -30 26 -60h352v-60h-321q35 -63 35 -138q0 -161 -162 -375h402q130 0 189 132l49 -1l-103 -231h-719l1 50q187 238 187 418q0 77 -34 143l-2 2h-172v60h143
q-14 31 -26 60h-135v60h113q-36 107 -36 193q0 226 123.5 347t310.5 121q75 0 185.5 -14t110.5 -34v-161h-58q-5 61 -77 102v0z" />
    <glyph glyph-name="peseta" unicode="&#x20a7;" horiz-adv-x="1969" 
d="M361 1384v-662q3 -9 7 -17q41 -102 108 -153q57 -44 116 -44q10 0 19 1q68 8 127 75t87 177q22 87 22 179q0 24 -1 47q-7 116 -49.5 218.5t-108.5 144.5q-56 35 -112 35q-10 0 -21 -1h-194v0zM1448 908h-179v-685q0 -81 34 -119q28 -31 81 -37l-71 192l49 1
q55 -130 114 -174q57 -44 127 -44h7q92 0 151 52q59 53 59 136q0 102 -259 226q-101 52 -144 112t-43 145q0 121 73 194l1 1v0zM991 910q-7 -101 -48 -194q-50 -114 -141 -177.5t-190 -63.5q-100 0 -191 64q-33 22 -60 51v-305q0 -235 102 -235h97v-50h-560v50h96
q103 0 103 235v864q0 235 -103 235h-96v50h618q92 -2 181 -62q91 -62 143 -177q50 -113 51 -237h10q216 0 216 355h50v-355h259q42 19 110 20h2q54 0 133.5 -13.5t79.5 -33.5v-159h-42q-4 66 -65.5 108t-133.5 42q-64 0 -102.5 -36.5t-38.5 -96.5q0 -108 235 -220
q122 -55 167.5 -117.5t45.5 -153.5q0 -140 -83 -231q-102 -84 -228 -86q-58 0 -105 11q-28 6 -56 6q-18 0 -36 -3q-28 -5 -59 -5q-124 0 -173.5 57t-57.5 176h-1v687h-129v0z" />
    <glyph glyph-name="Euro" unicode="&#x20ac;" horiz-adv-x="1161" 
d="M184 372q-62 135 -76 281h-108l17 60h87v29q0 16 1 31h-71l17 60h58q14 145 76 281q81 178 226 274t298 96q43 0 87 -8q40 -10 82 -29q8 -6 16 -6q20 0 34 45h41l84 -281l-40 -1q-49 134 -138 178q-43 22 -81 32v3q-50 16 -101 16q-17 0 -34 -2q-120 -12 -226 -113.5
t-157 -273.5q-32 -104 -39 -211h706l-17 -60h-692q0 -30 2 -60h674l-17 -60h-652q17 -158 83 -298q74 -157 193 -236q102 -68 216 -69q186 3 256 91q74 91 74 185h48v-143q0 -70 -111 -127q-105 -54 -267 -56q-181 0 -325.5 98t-223.5 274v0z" />
    <glyph glyph-name="uni2116" unicode="&#x2116;" horiz-adv-x="2271" 
 />
    <glyph glyph-name="trademark" unicode="&#x2122;" horiz-adv-x="1497" 
 />
    <glyph glyph-name="partialdiff" unicode="&#x2202;" horiz-adv-x="910" 
d="M155 537q0 -41 5 -79q14 -122 61.5 -230t118.5 -165q64 -53 128 -53q6 0 13 1q70 5 127.5 70.5t80.5 179.5q16 73 16 149q0 42 -5 85q-14 122 -62.5 231.5t-119.5 165.5q-65 50 -128 50h-11q-68 -5 -126 -69.5t-82 -178.5q-16 -84 -16 -157v0zM860 477q0 -132 -56.5 -251
t-159 -185t-214.5 -66t-214.5 66t-159 185t-56.5 251q0 131 58 251t161 185t211 65q109 0 212 -65q29 -18 54 -41q-84 235 -233.5 377t-326.5 155v55q306 0 515 -285t209 -697v0z" />
    <glyph glyph-name="uni2206" unicode="&#x2206;" horiz-adv-x="1117" 
d="M541 1434l526 -1434h-1067zM508 1195l-406 -1072h801z" />
    <glyph glyph-name="product" unicode="&#x220f;" horiz-adv-x="1469" 
d="M463 1384q-102 0 -102 -235v-1281q0 -235 102 -235h97v-51h-560v51h96q103 0 103 235v1281q0 235 -103 235h-96v50h1419v-50h-97q-102 0 -102 -235v-1281q0 -235 102 -235h97v-50h-560v50h96q103 0 103 235v1281q0 235 -103 235h-492v0z" />
    <glyph glyph-name="summation" unicode="&#x2211;" horiz-adv-x="1074" 
d="M939 548l-788 -914h635q130 0 189 182h49l-103 -232h-921v50q62 0 106 53l663 781l-663 859q-44 57 -106 57v50h921l103 -232h-49q-59 182 -189 182h-485l638 -836v0z" />
    <glyph glyph-name="minus" unicode="&#x2212;" horiz-adv-x="890" 
d="M0 647v140h839l1 -1v-139h-840z" />
    <glyph glyph-name="radical" unicode="&#x221a;" horiz-adv-x="1087" 
d="M164 0l-164 359l74 35l85 -185l728 1470h150v-60h-72z" />
    <glyph glyph-name="infinity" unicode="&#x221e;" horiz-adv-x="935" 
d="M373 755q-15 103 -74 133q-46 22 -84 22q-12 0 -23 -2q-49 -10 -92.5 -44.5t-65.5 -84.5q-20 -46 -20 -90v-8q2 -48 27.5 -89t71.5 -58q29 -11 61 -11q16 0 33 3q47 10 90.5 43.5t75.5 185.5v0zM400 687q12 -96 94 -153q69 -48 123 -48q11 0 21 2q62 12 117.5 52
t84.5 101q26 54 26 108v11q-2 60 -35.5 108.5t-91.5 68.5q-37 13 -76 13q-22 0 -44 -4q-67 -9 -127 -62t-92 -197v0zM384 827q9 35 21 69q34 88 95 137t128 49t128 -48t95 -135t34 -182t-34 -182t-95 -135t-128 -48t-128 49t-95 136q-12 35 -21 70q-5 -21 -12 -41
q-27 -73 -74 -113t-99 -40t-100 41t-73.5 113.5t-25.5 149.5q0 76 25.5 149t73.5 114t100 41t99 -40t74 -112q7 -21 12 -42v0z" />
    <glyph glyph-name="integral" unicode="&#x222b;" horiz-adv-x="847" 
d="M60 -281q-60 0 -60 29v159h36q1 -43 34.5 -64.5t63.5 -21.5h1q82 0 115 162q32 162 40 316l70 734l8 62q27 238 135 429.5t234 191.5q60 0 60 -29v-159h-36q-1 43 -35 64.5t-63 21.5q-71 0 -116 -155.5t-49 -363.5l-73 -767q-20 -231 -130.5 -420t-234.5 -189v0z" />
    <glyph glyph-name="approxequal" unicode="&#x2248;" horiz-adv-x="879" 
d="M829 1053v-156q-63 -72 -122 -97.5t-116 -25.5q-60 0 -177.5 48.5t-176.5 48.5q-51 0 -107.5 -28t-129.5 -112v156q64 73 123 99t114 26q64 0 181.5 -49.5t172.5 -49.5q52 0 108.5 28t129.5 112v0zM829 705v-156q-63 -72 -122 -97.5t-116 -25.5q-60 0 -177.5 48.5
t-176.5 48.5q-51 0 -107.5 -28t-129.5 -112v156q64 73 123 99t114 26q64 0 181.5 -49.5t172.5 -49.5q52 0 108.5 28t129.5 112v0z" />
    <glyph glyph-name="lessequal" unicode="&#x2264;" horiz-adv-x="890" 
d="M840 1074l-625 -359l625 -355v-167l-840 481v83l840 484v-167zM0 1v140h839l1 -1v-139h-840z" />
    <glyph glyph-name="greaterequal" unicode="&#x2265;" horiz-adv-x="890" 
d="M0 1241l840 -484v-83l-840 -481v167l625 355l-625 359v167zM0 2v140h839l1 -1v-139h-840z" />
    <glyph glyph-name="uniF001" unicode="&#xf001;" horiz-adv-x="1073" 
 />
    <glyph glyph-name="uniF001" unicode="&#xfb01;" horiz-adv-x="1073" 
 />
    <glyph glyph-name="uniF002" unicode="&#xf002;" horiz-adv-x="1081" 
 />
    <glyph glyph-name="uniF002" unicode="&#xfb02;" horiz-adv-x="1081" 
 />
    <glyph glyph-name="_92" horiz-adv-x="0" 
 />
    </font>
</defs>
</svg>
